<?xml version="1.0" standalone="no"?>
<!DOCTYPE svg PUBLIC "-//W3C//DTD SVG 1.1//EN" "http://www.w3.org/Graphics/SVG/1.1/DTD/svg11.dtd" >
<svg xmlns="http://www.w3.org/2000/svg" xmlns:xlink="http://www.w3.org/1999/xlink" version="1.1">
<metadata></metadata>
<defs>
<font id="dinregular" horiz-adv-x="1024" >
<font-face units-per-em="2048" ascent="1667" descent="-381" />
<missing-glyph horiz-adv-x="454" />
<glyph horiz-adv-x="0" />
<glyph unicode="&#xd;" horiz-adv-x="454" />
<glyph horiz-adv-x="1390" d="M72 600v274h133v584h540q115 0 216.5 -33.5t177.5 -109.5q63 -63 95 -131t44 -139.5t12 -150.5v-165v-165t-12 -150.5t-44 -139t-95 -131.5q-76 -76 -177.5 -109.5t-216.5 -33.5h-540v600h-133zM563 319h158q68 0 107.5 23t64.5 59q10 16 18.5 34t12.5 52.5t6 92t2 149.5 t-2 149.5t-6 91.5t-12.5 53t-18.5 34q-25 37 -65 59.5t-107 22.5h-158v-265h185v-274h-185v-281z" />
<glyph horiz-adv-x="1126" d="M104 530q0 78 5.5 137.5t19.5 107.5t36.5 87t55.5 76q23 25 58.5 50.5t82.5 45.5q35 16 74 25.5t84 11.5l-41 82h-231v233h117l-46 95h361l45 -95h199v-233h-84l53 -117q35 -74 58.5 -132t40 -114.5t23.5 -118t7 -141.5q0 -78 -5 -138t-19.5 -107t-36 -86t-56.5 -76 q-47 -51 -130 -93t-212 -42t-212 42t-130 93q-33 37 -55.5 76t-36.5 86t-19.5 107.5t-5.5 137.5zM440 530q0 -76 7.5 -129t35.5 -82q29 -29 80 -28q51 0 80 28q29 29 36 82t7 129t-7 129.5t-36 81.5q-29 29 -80 29t-80 -29t-36 -82t-7 -129z" />
<glyph horiz-adv-x="1226" d="M72 367v299l123 77v715h358v-489l231 145v-297l-231 -145v-353h612v-319h-970v444z" />
<glyph horiz-adv-x="712" d="M51 510v281l101 61v606h335v-405l101 61v-280l-101 -62v-422q0 -68 68 -67h117v-283h-178q-92 0 -157 29.5t-106 77t-60 104.5t-19 115v245z" />
<glyph horiz-adv-x="1214" d="M10 180l230 230q57 -57 147 -80t178 -23q209 0 209 131q0 55 -29 86q-31 31 -96 39l-176 25q-195 29 -293 129q-100 102 -100 293q0 100 37 184t105.5 145.5t166.5 96t223 34.5q158 0 278 -39.5t214 -134.5l-225 -225q-35 35 -74 52.5t-76 25.5t-69.5 8h-57.5 q-47 0 -80 -12t-54.5 -31.5t-31.5 -43t-10 -48.5q0 -14 6 -32.5t23 -35.5q14 -14 37.5 -26.5t62.5 -16.5l176 -24q193 -27 287 -121q59 -57 83.5 -137.5t24.5 -182.5q0 -111 -45 -196.5t-121.5 -144t-179 -88t-217.5 -29.5q-168 0 -305 40t-248 152zM200 1968h246l162 -170 l162 170h246l-279 -367h-258z" />
<glyph horiz-adv-x="1032" d="M20 147l218 218q35 -35 72.5 -53.5t74.5 -28t68.5 -10.5t52.5 -1q18 0 42.5 3.5t47 11.5t38 22.5t15.5 34.5q0 23 -15.5 44.5t-64.5 25.5l-170 16q-72 6 -130 26.5t-100 59.5t-65.5 96.5t-23.5 137.5q0 92 38 159.5t99.5 113.5t140 68.5t160.5 22.5q135 0 243.5 -26.5 t190.5 -108.5l-207 -207q-41 41 -104 53.5t-129 12.5q-61 0 -85 -22.5t-24 -41.5q0 -4 1.5 -13t7.5 -18.5t20 -17.5t43 -12l170 -17q86 -8 149.5 -36.5t103.5 -73.5t59.5 -102.5t19.5 -123.5q0 -98 -39 -167.5t-104.5 -115.5t-151.5 -67.5t-182 -21.5q-61 0 -123 4 t-122 19.5t-118.5 47t-116.5 88.5zM110 1616h246l162 -170l162 170h246l-279 -367h-258z" />
<glyph horiz-adv-x="1239" d="M0 1458h391l230 -524l227 524h391l-440 -864v-594h-359v594zM499 1601l101 369h344l-242 -369h-203z" />
<glyph horiz-adv-x="1052" d="M0 1102h352l187 -572l178 572h352l-457 -1233q-33 -92 -86 -145q-49 -53 -111.5 -73t-135.5 -20h-127v303h71q45 0 70.5 15.5t42.5 66.5l31 93zM407 1249l101 369h344l-242 -369h-203z" />
<glyph horiz-adv-x="1284" d="M147 0v1458h359v-252h219q121 0 214 -40t156.5 -105.5t95.5 -149.5t32 -174t-32 -174t-95.5 -149.5t-156.5 -105.5t-214 -40h-219v-268h-359zM506 590h203q74 0 114.5 45t40.5 102t-41 102.5t-114 45.5h-203v-295z" />
<glyph horiz-adv-x="1169" d="M127 -356v1814h336v-436q47 47 105.5 69.5t140.5 22.5q80 0 149.5 -26.5t116.5 -73.5q41 -41 61.5 -95.5t29.5 -116t10 -126t1 -125.5t-1 -126t-10 -126t-29.5 -115.5t-61.5 -95.5q-47 -47 -117 -73.5t-149 -26.5q-82 0 -140.5 22.5t-105.5 69.5v-436h-336zM463 551 q0 -59 4 -107.5t18.5 -82t42 -52t74.5 -18.5t75 18.5t42 52t18 82t4 107.5t-4 107.5t-18 82t-42 52t-75 18.5t-74.5 -18.5t-42 -52t-18.5 -82t-4 -107.5z" />
<glyph horiz-adv-x="1112" d="M61 0v279l560 860h-535v319h965v-278l-562 -861h562v-319h-990zM151 1968h246l162 -170l162 170h246l-279 -367h-258z" />
<glyph horiz-adv-x="1001" d="M61 0v248l420 551h-395v303h834v-248l-428 -551h428v-303h-859zM96 1616h246l162 -170l162 170h246l-279 -367h-258z" />
<glyph horiz-adv-x="1851" d="M72 1024v266l194 168h238v-874h-238v608zM397 0l695 1458h258l-695 -1458h-258zM1182 0v213l309 315q25 25 35 41.5t10 40.5q0 27 -15.5 43.5t-43.5 16.5q-16 0 -37 -10.5t-21 -51.5h-237q0 68 24.5 120t64.5 86t94 51.5t112 17.5q63 0 116.5 -18.5t92 -53.5t61 -85 t22.5 -116q0 -74 -30.5 -122t-89.5 -105l-179 -170h299v-213h-587z" />
<glyph horiz-adv-x="1783" d="M72 1024v266l194 168h238v-874h-238v608zM397 0l695 1458h258l-695 -1458h-258zM1059 109v225l282 540h261l-285 -540h108v76h224v-76h53v-225h-53v-109h-224v109h-366z" />
<glyph horiz-adv-x="636" d="M72 1024v266l194 168h238v-874h-238v608z" />
<glyph horiz-adv-x="1824" d="M82 862h235q-2 -35 16.5 -54.5t49.5 -19.5q66 0 66 72q0 29 -19.5 49.5t-48.5 20.5h-33v203h33q35 0 48 21.5t13 37.5q0 31 -17 46t-40 15t-41 -15t-16 -48h-238q0 63 22.5 114.5t63.5 87t94.5 55t114.5 19.5q63 0 116.5 -20.5t92.5 -55t61.5 -84t22.5 -106.5 q0 -74 -27.5 -108.5t-54.5 -55.5l28.5 -28.5t30 -38t22.5 -50t9 -67.5q0 -72 -25.5 -124t-67.5 -86t-96.5 -50.5t-113.5 -16.5q-55 0 -109.5 15.5t-97.5 49.5t-68.5 89t-25.5 133zM438 0l695 1458h258l-695 -1458h-258zM1100 109v225l282 540h260l-284 -540h108v76h224v-76 h53v-225h-53v-109h-224v109h-366z" />
<glyph horiz-adv-x="768" d="M82 862h235q-2 -35 16.5 -54.5t49.5 -19.5q66 0 66 72q0 29 -19.5 49.5t-48.5 20.5h-33v203h33q35 0 48 21.5t13 37.5q0 31 -17 46t-40 15t-41 -15t-16 -48h-238q0 63 22.5 114.5t63.5 87t94.5 55t114.5 19.5q63 0 116.5 -20.5t92.5 -55t61.5 -84t22.5 -106.5 q0 -74 -27.5 -108.5t-54.5 -55.5l28.5 -28.5t30 -38t22.5 -50t9 -67.5q0 -72 -25.5 -124t-67.5 -86t-96.5 -50.5t-113.5 -16.5q-55 0 -109.5 15.5t-97.5 49.5t-68.5 89t-25.5 133z" />
<glyph horiz-adv-x="751" d="M82 584v213l309 315q25 25 35 41t10 41q0 27 -15 43t-44 16q-16 0 -37 -10t-21 -51h-237q0 68 24.5 120t64.5 86t94 51t112 17q63 0 116.5 -18t92.5 -53t61.5 -85t22.5 -116q0 -74 -31 -122t-90 -105l-178 -170h299v-213h-588z" />
<glyph horiz-adv-x="745" d="M205 -152v717h336v-717h-336zM205 893v717h336v-717h-336z" />
<glyph horiz-adv-x="1138" d="M100 446v316h938v-316h-938z" />
<glyph horiz-adv-x="1138" d="M80 330l278 274l-278 277l213 213l274 -277l277 277l215 -213l-279 -277l279 -274l-213 -213l-277 276l-274 -276z" />
<glyph unicode=" "  horiz-adv-x="454" />
<glyph unicode="&#x09;" horiz-adv-x="454" />
<glyph unicode="&#xa0;" horiz-adv-x="454" />
<glyph unicode="!" horiz-adv-x="749" d="M205 1458h422l-90 -973h-242zM221 188q0 41 15.5 76t42 61.5t62.5 42t75 15.5q41 0 75.5 -15.5t61.5 -42t42 -61.5t15 -76q0 -39 -15 -74.5t-42 -62t-61.5 -42t-75.5 -15.5q-39 0 -75 15.5t-62.5 42t-42 62.5t-15.5 74z" />
<glyph unicode="&#x22;" horiz-adv-x="999" d="M117 979v479h301v-479h-301zM582 979v479h301v-479h-301z" />
<glyph unicode="#" horiz-adv-x="1460" d="M100 346v318h170l27 180h-119v317h170l49 314h357l-49 -314h184l49 314h356l-49 -314h119v-317h-170l-27 -180h119v-318h-170l-55 -346h-356l55 346h-185l-55 -346h-356l55 346h-119zM627 664h184l27 180h-185z" />
<glyph unicode="$" horiz-adv-x="1296" d="M10 180l230 230q55 -55 141 -78t172 -25v271l-80 10q-190 25 -293 129q-100 102 -100 293q0 90 29.5 166.5t85 136t135.5 99.5t182 52v187h258v-183q129 -8 231.5 -49t184.5 -123l-225 -225q-25 25 -54.5 40t-61.5 24.5t-62.5 13.5t-53.5 6v-256l84 -12q193 -27 287 -121 q59 -57 83.5 -137.5t24.5 -182.5q0 -96 -33.5 -172.5t-92 -133t-139.5 -92.5t-173 -50v-231h-258v221q-152 4 -275.5 46t-226.5 146zM426 1022q0 -14 6 -32.5t23 -35.5q14 -14 37.5 -26.5t60.5 -16.5v242q-68 -12 -97.5 -51t-29.5 -80zM729 313q127 25 127 125q0 57 -29 86 q-18 20 -44.5 27.5t-53.5 11.5v-250z" />
<glyph unicode="%" horiz-adv-x="1755" d="M92 991v195q0 74 25.5 127t68.5 88t98.5 52t116.5 17t116.5 -17t98.5 -52t69 -88t26 -127v-195q0 -74 -26 -127t-69 -88t-98 -52t-117 -17q-61 0 -116.5 17t-98.5 52t-68.5 88.5t-25.5 126.5zM330 999q0 -45 20.5 -62t50.5 -17q31 0 51.5 17t20.5 62v179q0 45 -20.5 62 t-51.5 17t-51 -17t-20 -62v-179zM401 0l695 1458h258l-695 -1458h-258zM1044 272v195q0 74 26 127t69 88t98 52.5t117 17.5q61 0 116.5 -17.5t98.5 -52.5t68.5 -88t25.5 -127v-195q0 -74 -25.5 -127t-68.5 -87.5t-98.5 -52t-116.5 -17.5t-116.5 17.5t-98.5 52t-69 88 t-26 126.5zM1282 281q0 -45 20.5 -62.5t51.5 -17.5t51 17.5t20 62.5v178q0 45 -20.5 62.5t-50.5 17.5q-31 0 -51.5 -17.5t-20.5 -62.5v-178z" />
<glyph unicode="&#x26;" horiz-adv-x="1454" d="M100 442q0 63 20.5 117.5t54.5 101t75 83t82 63.5q-18 23 -43 51.5t-45.5 66.5t-34.5 83t-14 100q0 162 108.5 262t319.5 100q96 0 171.5 -26.5t128 -75.5t80 -116.5t27.5 -147.5q0 -84 -38 -141.5t-105 -108.5q-18 -14 -37 -29q-16 -12 -33.5 -24.5t-32.5 -22.5 l172 -198q31 35 47.5 97t20.5 114h315q-10 -143 -50 -256t-120 -201l285 -334h-422l-92 106q-27 -20 -56.5 -40.5t-69.5 -38t-93 -28.5t-127 -11q-258 0 -376 120.5t-118 333.5zM424 444q0 -68 51 -110.5t119 -42.5q55 0 87 15.5t56 37.5l-227 260q-51 -35 -68.5 -70.5 t-17.5 -89.5zM530 1100q0 -33 30 -67t48 -52q8 4 15.5 10t15.5 13q8 8 18 12q27 18 42.5 39.5t15.5 46.5q0 37 -22.5 61.5t-69.5 24.5q-53 0 -73 -24.5t-20 -63.5z" />
<glyph unicode="'" horiz-adv-x="536" d="M117 979v479h303v-479h-303z" />
<glyph unicode="(" horiz-adv-x="733" d="M147 334v790q0 76 9.5 153t50.5 142q39 66 93 122t108 110l225 -226l-33.5 -33.5t-29 -30.5t-27 -31.5t-27.5 -41.5q-33 -55 -33 -176v-766q0 -121 33 -176q14 -25 27.5 -41t27 -31.5t28.5 -31t34 -33.5l-225 -226q-53 53 -107.5 109.5t-93.5 122.5q-41 66 -50.5 142.5 t-9.5 152.5z" />
<glyph unicode=")" horiz-adv-x="733" d="M100 33q18 18 34 33.5t29 31t26.5 31.5t27.5 41q33 55 33 176v766q0 121 -33 176q-14 25 -27.5 41.5t-26.5 31.5t-28.5 30.5t-34.5 33.5l226 226q53 -53 107 -109.5t93 -122.5q41 -66 50.5 -142.5t9.5 -152.5v-790q0 -76 -9.5 -153t-50.5 -142q-39 -66 -93 -122 t-107 -110z" />
<glyph unicode="*" horiz-adv-x="1036" d="M96 928l215 110l-215 111l115 199l203 -131l-11 241h230l-10 -241l202 131l115 -199l-215 -111l215 -110l-115 -199l-202 131l10 -242h-230l11 242l-203 -131z" />
<glyph unicode="+" horiz-adv-x="1138" d="M100 422v315h312v312h315v-312h311v-315h-311v-311h-315v311h-312z" />
<glyph unicode="," horiz-adv-x="589" d="M117 356h356v-458l-356 -263v721z" />
<glyph unicode="-" horiz-adv-x="872" d="M100 446v316h672v-316h-672z" />
<glyph unicode="." horiz-adv-x="630" d="M100 209q0 45 17.5 84t46.5 68.5t67.5 46t83.5 16.5t84 -16.5t69 -46t46 -68.5t16 -84t-16 -84t-46 -67.5t-69 -46t-84 -17.5t-83.5 17.5t-67.5 46t-46.5 67.5t-17.5 84z" />
<glyph unicode="/" horiz-adv-x="882" d="M0 -152l584 1762h311l-584 -1762h-311z" />
<glyph unicode="0" horiz-adv-x="1138" d="M100 442v338q0 113 39 198t104.5 142.5t150.5 86t175 28.5t175 -28.5t151 -86t104.5 -142.5t38.5 -198v-338q0 -113 -38.5 -197.5t-104.5 -142t-151 -86t-175 -28.5t-175 28.5t-150.5 86t-104.5 142.5t-39 197zM436 440q0 -78 40 -113.5t93 -35.5t93 35.5t40 113.5v340 q0 78 -39.5 115t-93.5 37q-53 0 -93 -37t-40 -115v-340z" />
<glyph unicode="1" horiz-adv-x="974" d="M113 594v358l311 271h336v-1223h-336v864z" />
<glyph unicode="2" horiz-adv-x="1173" d="M92 0v303l453 354q72 55 110.5 99.5t38.5 91.5q0 57 -34.5 91t-96.5 34q-23 0 -47 -6t-43.5 -22.5t-32 -43.5t-12.5 -70h-336q0 109 38 191t102.5 139.5t150.5 86t180 28.5q98 0 183 -28.5t148.5 -83t99.5 -132.5t36 -176q0 -61 -21.5 -114.5t-61.5 -103.5t-95 -99.5 t-123 -100.5l-176 -135h498v-303h-959z" />
<glyph unicode="3" horiz-adv-x="1118" d="M61 209h336q0 -78 43 -116t107 -38q66 0 107.5 39t41.5 117q0 66 -44 110t-111 44h-47v290h47q76 0 107.5 44t31.5 94q0 70 -40 104.5t-93 34.5t-93 -36t-40 -101h-336q0 102 37 184t100.5 139.5t148.5 87t183 29.5q102 0 187 -32t148.5 -89t98.5 -137t35 -174 q0 -59 -13.5 -105.5t-35 -80t-48 -57t-55.5 -42.5q31 -20 60.5 -48t53 -65.5t39 -87.5t15.5 -116q0 -115 -40 -199t-106.5 -139.5t-154.5 -83t-184 -27.5q-90 0 -177 25.5t-156 80t-111 141.5t-42 210z" />
<glyph unicode="4" horiz-adv-x="1267" d="M84 61v320l473 946h363l-474 -946h271v233h319v-233h150v-320h-150v-313h-319v313h-633z" />
<glyph unicode="5" horiz-adv-x="1169" d="M129 209h336q8 -72 40 -113t97 -41q57 0 94 37q43 43 43 170q0 121 -37.5 164t-99.5 43q-37 0 -60.5 -11.5t-39 -26.5t-23.5 -33.5t-14 -32.5h-309v858h888v-303h-583v-226q23 16 76 37t120 21q96 0 167 -29t116 -74t71.5 -91t41 -95t18.5 -99.5t4 -101.5q0 -66 -6 -119 t-21.5 -99t-41 -86t-66.5 -81q-47 -47 -131 -86t-207 -39t-211 40t-135 87q-78 78 -99.5 164t-27.5 166z" />
<glyph unicode="6" horiz-adv-x="1150" d="M72 465q0 76 10 139.5t30.5 125t51.5 123.5t69 134l275 504h362l-338 -592q27 14 62 19.5t82 5.5q74 0 146.5 -29t129 -85t92 -142t35.5 -203q0 -119 -41 -209t-109.5 -149.5t-159.5 -89t-194 -29.5q-100 0 -192 29.5t-160.5 89t-109.5 149.5t-41 209zM408 465 q0 -92 49 -139t118 -47q70 0 119 47t49 139t-49 139t-119 47t-118.5 -47t-48.5 -139z" />
<glyph unicode="7" horiz-adv-x="1193" d="M92 690v533h1030v-303l-506 -1156h-364l506 1156h-346v-230h-320z" />
<glyph unicode="8" horiz-adv-x="1179" d="M100 436q0 68 17.5 119t43 89t54.5 63.5t49 42.5q-18 16 -44.5 40.5t-49.5 60.5t-39 82t-16 105q0 104 39 184.5t104.5 135.5t151.5 83.5t180 28.5t180 -28.5t151.5 -83.5t104.5 -135t39 -185q0 -59 -16.5 -105t-39 -82t-49 -60.5t-45.5 -40.5q20 -16 49 -42t54.5 -64 t43 -89t17.5 -119q0 -113 -39 -197.5t-105.5 -140t-155.5 -83t-189 -27.5t-189.5 27.5t-156 83t-105.5 140.5t-39 197zM436 444q0 -63 45 -108t109 -45q63 0 108 45t45 108t-45 108.5t-108 45.5t-108.5 -45t-45.5 -109zM451 1028q0 -59 39.5 -99t99.5 -40q59 0 99 40t40 99 t-40 99t-99 40t-99 -40t-40 -99z" />
<glyph unicode="9" horiz-adv-x="1150" d="M72 758q0 121 41 210t109.5 148.5t160.5 89t192 29.5q102 0 193.5 -29.5t160 -89t109.5 -148.5t41 -210q0 -76 -10 -139.5t-30.5 -125t-51.5 -124t-69 -133.5l-275 -504h-362l337 592q-27 -14 -61.5 -19.5t-81.5 -5.5q-74 0 -146.5 28.5t-129 85t-92 142.5t-35.5 203z M408 758q0 -92 49 -139.5t118 -47.5q70 0 119 47.5t49 139.5t-49 139t-119 47t-118.5 -47t-48.5 -139z" />
<glyph unicode=":" horiz-adv-x="677" d="M147 209q0 45 17.5 84t46.5 68.5t67.5 46t83.5 16.5t84 -16.5t69 -46t46.5 -68.5t16.5 -84t-16.5 -84t-46.5 -67.5t-68.5 -46t-84.5 -17.5q-45 0 -83.5 17.5t-67.5 46t-46.5 67.5t-17.5 84zM147 721q0 45 17.5 84t46.5 68.5t67.5 46t83.5 16.5t84 -16.5t69 -46 t46.5 -68.5t16.5 -84t-16.5 -84t-46.5 -67.5t-68.5 -46t-84.5 -17.5q-45 0 -83.5 17.5t-67.5 46t-46.5 67.5t-17.5 84z" />
<glyph unicode=";" horiz-adv-x="649" d="M147 721q0 45 17.5 84t46.5 68.5t67.5 46t83.5 16.5t84 -16.5t69 -46t46.5 -68.5t16.5 -84t-16.5 -84t-46.5 -67.5t-68.5 -46t-84.5 -17.5q-45 0 -83.5 17.5t-67.5 46t-46.5 67.5t-17.5 84zM184 356h357v-458l-357 -263v721z" />
<glyph unicode="&#x3c;" horiz-adv-x="2103" d="M279 422v420l614 -623v1340h315v-1340l615 623v-420l-772 -772z" />
<glyph unicode="=" horiz-adv-x="1138" d="M100 197v315h938v-315h-938zM100 696v316h938v-316h-938z" />
<glyph unicode="&#x3e;" horiz-adv-x="2103" d="M281 369v419l772 773l772 -773v-419l-615 622v-1341h-315v1341z" />
<glyph unicode="?" horiz-adv-x="1101" d="M123 1038q0 104 37 185.5t99.5 135.5t146 82.5t176.5 28.5q90 0 173 -27.5t146.5 -80.5t101 -134.5t37.5 -187.5q0 -80 -30.5 -143t-73.5 -119l-141 -178q-14 -16 -25.5 -43t-11.5 -53v-19h-336v47q0 70 18.5 122.5t65.5 105.5l143 168q23 27 39.5 58.5t16.5 55.5 q0 53 -31 89t-92 36q-66 0 -94.5 -36.5t-28.5 -92.5h-336zM395 188q0 41 15.5 76t42 61.5t62.5 42t75 15.5q41 0 75.5 -15.5t61.5 -42t42 -61.5t15 -76q0 -39 -15 -74.5t-42 -62t-61.5 -42t-75.5 -15.5q-39 0 -75 15.5t-62.5 42t-42 62.5t-15.5 74z" />
<glyph unicode="@" horiz-adv-x="1605" d="M100 350v570q0 137 27 239.5t104 179.5q78 78 181.5 104.5t244.5 26.5h291q135 0 240.5 -25.5t185.5 -105.5q78 -78 104.5 -179t26.5 -240v-928l-309 8v82q-47 -47 -99.5 -70.5t-131.5 -23.5q-76 0 -138.5 23.5t-107.5 66.5q-35 35 -55.5 72.5t-29.5 85t-11 103.5t-2 124 t2 124t11 102t29.5 85t55.5 74q45 43 106.5 66.5t137.5 23.5q72 0 126 -21.5t97 -62.5v53q0 53 -12.5 103.5t-53.5 91.5q-39 39 -90 52t-104 13h-246q-53 0 -103.5 -12t-91.5 -53q-43 -43 -54 -92t-11 -103v-536q0 -66 16.5 -100.5t57.5 -75.5l-232 -232q-43 43 -72.5 82 t-50 84t-30 98.5t-9.5 122.5zM940 463q0 -111 30.5 -154t92.5 -43q61 0 92 43t31 154t-31 153.5t-92 42.5t-92 -43t-31 -153z" />
<glyph unicode="A" horiz-adv-x="1337" d="M0 0l530 1458h277l530 -1458h-374l-68 217h-449l-71 -217h-375zM547 516h254l-123 389z" />
<glyph unicode="B" horiz-adv-x="1337" d="M147 0v1458h605q115 0 200.5 -30.5t145 -86t89.5 -133.5t30 -172q0 -61 -18.5 -110t-44.5 -85t-53.5 -58.5t-43.5 -34.5q23 -14 53.5 -37t59 -60t48 -90t19.5 -131q0 -104 -35 -184t-95 -135.5t-143 -83t-182 -27.5h-635zM506 322h242q74 0 102.5 41t28.5 88t-29 87 t-102 40h-242v-256zM506 899h223q74 0 101.5 38t27.5 81t-27.5 81t-101.5 38h-223v-238z" />
<glyph unicode="C" horiz-adv-x="1120" d="M100 729q0 82 1 161t14.5 152.5t44 140t88.5 124.5q80 80 178 121.5t227 41.5q72 0 130.5 -11t106.5 -32.5t89 -51t78 -66.5l-238 -238q-35 35 -69.5 57.5t-96.5 22.5q-49 0 -83.5 -17.5t-55.5 -43.5q-12 -16 -22.5 -37t-17.5 -60t-11 -101.5t-4 -162.5t4 -162.5 t11 -101.5t17.5 -59.5t22.5 -36.5q20 -27 55 -44.5t84 -17.5q61 0 96 22.5t70 57.5l238 -237q-37 -37 -78 -67t-89 -51.5t-106.5 -32.5t-130.5 -11q-129 0 -227 42t-178 122q-57 57 -88 123.5t-44.5 140t-14.5 152.5t-1 161z" />
<glyph unicode="D" horiz-adv-x="1333" d="M147 0v1458h541q115 0 216.5 -33.5t176.5 -109.5q63 -63 95 -131t44.5 -139.5t12.5 -150.5v-165v-165t-12.5 -150.5t-44 -139t-95.5 -131.5q-76 -76 -177 -109.5t-216 -33.5h-541zM506 319h158q68 0 107.5 23t64.5 59q10 16 18 34t12 52.5t6 92t2 149.5t-2 149.5t-6 91.5 t-12 53t-18 34q-25 37 -65 59.5t-107 22.5h-158v-820z" />
<glyph unicode="E" horiz-adv-x="1245" d="M147 0v1458h992v-319h-633v-244h541v-320h-541v-256h633v-319h-992z" />
<glyph unicode="F" horiz-adv-x="1220" d="M147 0v1458h992v-319h-633v-256h541v-320h-541v-563h-359z" />
<glyph unicode="G" horiz-adv-x="1296" d="M100 729q0 82 1 161t14.5 152.5t44 140t88.5 124.5q80 80 176 121.5t229 41.5q78 0 140.5 -9t115 -30.5t99.5 -56.5t96 -84l-244 -243q-51 53 -94 78.5t-113 25.5q-49 0 -85 -18.5t-56 -45.5q-12 -16 -22.5 -36.5t-16.5 -58.5t-10 -100.5t-4 -162.5t4 -162.5t10 -101.5 t16.5 -59.5t22.5 -36.5q20 -27 56 -44.5t85 -17.5q57 0 90 15.5t58 42.5q29 29 41 75.5t12 83.5v17h-201v299h557v-197q0 -88 -7 -159.5t-23.5 -130t-44 -106.5t-68.5 -91q-82 -84 -182.5 -126t-231.5 -42q-129 0 -227 42t-178 122q-57 57 -88 123.5t-44.5 140t-14.5 152.5 t-1 161z" />
<glyph unicode="H" horiz-adv-x="1392" d="M147 0v1458h359v-561h381v561h358v-1458h-358v578h-381v-578h-359z" />
<glyph unicode="I" horiz-adv-x="653" d="M147 0v1458h359v-1458h-359z" />
<glyph unicode="J" horiz-adv-x="1056" d="M-16 147l235 234q35 -35 69 -54.5t93 -19.5q84 0 137 48t53 153v950h359v-958q0 -129 -47 -225.5t-124 -160t-176.5 -95t-201.5 -31.5q-63 0 -116.5 8t-101.5 26.5t-91 49t-88 75.5z" />
<glyph unicode="K" horiz-adv-x="1378" d="M147 0v1458h355v-516l422 516h438l-498 -590l514 -868h-417l-336 598l-123 -141v-457h-355z" />
<glyph unicode="L" horiz-adv-x="1179" d="M147 0v1458h359v-1139h612v-319h-971z" />
<glyph unicode="M" horiz-adv-x="1654" d="M147 0v1458h353l327 -643l328 643h352v-1458h-358v698l-207 -360h-229l-207 360v-698h-359z" />
<glyph unicode="N" horiz-adv-x="1433" d="M147 0v1458h314l467 -733v733h358v-1458h-313l-467 733v-733h-359z" />
<glyph unicode="O" horiz-adv-x="1310" d="M100 729q0 82 1 161t14.5 152.5t44 140t88.5 124.5q80 80 176 121.5t231 41.5t231.5 -42t176.5 -121q57 -57 88 -124t44 -140.5t14 -152.5t1 -161t-1 -161t-14 -152.5t-44 -140t-88 -123.5q-80 -80 -176 -122t-232 -42q-135 0 -231 42t-176 122q-57 57 -88 123.5 t-44.5 140t-14.5 152.5t-1 161zM459 729q0 -100 4 -161.5t10 -99.5t16.5 -58.5t22.5 -36.5q20 -27 57 -46.5t86 -19.5t86 19.5t58 46.5q12 16 22 36.5t16.5 58.5t10.5 99.5t4 161.5t-4 162.5t-10.5 100.5t-16.5 58.5t-22 36.5q-20 27 -57 45.5t-87 18.5q-49 0 -86 -18.5 t-57 -45.5q-12 -16 -22.5 -36.5t-16.5 -58.5t-10 -100.5t-4 -162.5z" />
<glyph unicode="P" horiz-adv-x="1284" d="M147 0v1458h578q121 0 214 -40t156.5 -105.5t95.5 -149.5t32 -174t-32 -174t-95.5 -149.5t-156.5 -105.5t-214 -40h-219v-520h-359zM506 842h203q74 0 114.5 45t40.5 102t-41 102.5t-114 45.5h-203v-295z" />
<glyph unicode="Q" horiz-adv-x="1310" d="M100 729q0 82 1 161t14.5 152.5t44 140t88.5 124.5q80 80 176 121.5t231 41.5t231.5 -42t176.5 -121q57 -57 88 -124t44 -140.5t14 -152.5t1 -161q0 -68 -1 -134.5t-8 -130t-24.5 -121.5t-50.5 -112l107 -106l-182 -182l-113 112q-115 -67 -278 -67h-5q-135 0 -231 42 t-176 122q-57 57 -88 123.5t-44.5 140t-14.5 152.5t-1 161zM459 729q0 -100 4 -161.5t10 -99.5t16.5 -58.5t22.5 -36.5q20 -27 57 -46.5t86 -19.5q18 0 29 2l-92 92l182 183l70 -70q4 37 6 89t2 126q0 100 -4 162.5t-10.5 100.5t-16.5 58.5t-22 36.5q-20 27 -57 45.5 t-87 18.5q-49 0 -86 -18.5t-57 -45.5q-12 -16 -22.5 -36.5t-16.5 -58.5t-10 -100.5t-4 -162.5z" />
<glyph unicode="R" horiz-adv-x="1335" d="M147 0v1458h578q121 0 214 -40t156.5 -105.5t95.5 -149.5t32 -174q0 -74 -20.5 -135t-54.5 -108.5t-77 -81t-86 -56.5l315 -608h-415l-258 543h-121v-543h-359zM506 842h203q74 0 114.5 45t40.5 102t-41 102.5t-114 45.5h-203v-295z" />
<glyph unicode="S" horiz-adv-x="1214" d="M10 180l230 230q57 -57 147 -80t178 -23q209 0 209 131q0 55 -29 86q-31 31 -96 39l-176 25q-195 29 -293 129q-100 102 -100 293q0 100 37 184t105.5 145.5t166.5 96t223 34.5q158 0 278 -39.5t214 -134.5l-225 -225q-35 35 -74 52.5t-76 25.5t-69.5 8h-57.5 q-47 0 -80 -12t-54.5 -31.5t-31.5 -43t-10 -48.5q0 -14 6 -32.5t23 -35.5q14 -14 37.5 -26.5t62.5 -16.5l176 -24q193 -27 287 -121q59 -57 83.5 -137.5t24.5 -182.5q0 -111 -45 -196.5t-121.5 -144t-179 -88t-217.5 -29.5q-168 0 -305 40t-248 152z" />
<glyph unicode="T" horiz-adv-x="1198" d="M61 1139v319h1076v-319h-359v-1139h-358v1139h-359z" />
<glyph unicode="U" horiz-adv-x="1351" d="M123 512v946h358v-938q0 -102 51.5 -157.5t141.5 -55.5t143 55.5t53 157.5v938h359v-946q0 -119 -44 -216t-120 -166t-176.5 -105.5t-214.5 -36.5q-113 0 -213.5 36.5t-176 105.5t-118.5 166t-43 216z" />
<glyph unicode="V" horiz-adv-x="1230" d="M0 1458h371l245 -815l242 815h373l-483 -1458h-267z" />
<glyph unicode="W" horiz-adv-x="1855" d="M0 1458h375l190 -770l236 770h254l235 -770l191 770h374l-399 -1458h-293l-235 719l-236 -719h-291z" />
<glyph unicode="X" horiz-adv-x="1298" d="M0 0l455 748l-426 710h407l213 -411l213 411h408l-426 -710l454 -748h-409l-240 449l-239 -449h-410z" />
<glyph unicode="Y" horiz-adv-x="1239" d="M0 1458h391l230 -524l227 524h391l-440 -864v-594h-359v594z" />
<glyph unicode="Z" horiz-adv-x="1112" d="M61 0v279l560 860h-535v319h965v-278l-562 -861h562v-319h-990z" />
<glyph unicode="[" horiz-adv-x="851" d="M147 -152v1762h623v-303h-287v-1155h287v-304h-623z" />
<glyph unicode="\" horiz-adv-x="882" d="M0 1573h311l572 -1725h-312z" />
<glyph unicode="]" horiz-adv-x="851" d="M82 -152v304h287v1155h-287v303h623v-1762h-623z" />
<glyph unicode="^" horiz-adv-x="1310" d="M117 768l383 707h311l383 -707h-354l-185 338l-184 -338h-354z" />
<glyph unicode="_" horiz-adv-x="1310" d="M0 -160h1311v-221h-1311v221z" />
<glyph unicode="`" d="M186 1618h344l101 -369h-203z" />
<glyph unicode="a" horiz-adv-x="1097" d="M55 346q0 61 21.5 119.5t67.5 102.5t117 71t169 27h223v28q0 76 -39 106.5t-127 30.5q-66 0 -100.5 -16t-75.5 -57l-209 209q43 43 84 70.5t89.5 45t103.5 24.5t125 7q238 0 361.5 -98t123.5 -301v-715h-327v90q-51 -51 -104.5 -75.5t-141.5 -24.5q-84 0 -150.5 25.5 t-113.5 72.5t-72 113.5t-25 144.5zM377 354q0 -37 27.5 -64.5t82.5 -27.5q49 0 77 7t57 34q33 31 32 111v28h-170q-49 0 -77.5 -24.5t-28.5 -63.5z" />
<glyph unicode="b" horiz-adv-x="1165" d="M127 0v1458h336v-436q47 47 105.5 69.5t140.5 22.5q80 0 149.5 -26.5t116.5 -73.5q41 -41 61.5 -95.5t29.5 -116t10 -126t1 -125.5t-1 -126t-10 -126t-29.5 -115.5t-61.5 -95.5q-47 -47 -118 -73.5t-150 -26.5q-86 0 -144.5 25.5t-109.5 76.5v-90h-326zM463 551 q0 -59 4 -107.5t18.5 -82t42 -52t74.5 -18.5t75 18.5t42 52t18 82t4 107.5t-4 107.5t-18 82t-42 52t-75 18.5t-74.5 -18.5t-42 -52t-18.5 -82t-4 -107.5z" />
<glyph unicode="c" horiz-adv-x="972" d="M78 551q0 180 50 290.5t126 171t162 81t157 20.5q117 0 206 -37t157 -104l-227 -228q-33 33 -64 49.5t-72 16.5q-35 0 -58 -10t-46 -33q-55 -57 -55 -217t55 -217q23 -23 46.5 -33t57.5 -10q41 0 72 16.5t64 48.5l227 -227q-68 -68 -157 -104.5t-206 -36.5 q-72 0 -157.5 20.5t-161.5 81t-126 171t-50 290.5z" />
<glyph unicode="d" horiz-adv-x="1165" d="M88 551q0 61 1 125.5t10.5 126t30 116t60.5 95.5q47 47 117 73.5t150 26.5q82 0 140 -22.5t105 -69.5v436h336v-1458h-325v90q-51 -51 -109.5 -76.5t-144.5 -25.5q-80 0 -150.5 26.5t-118.5 73.5q-41 41 -61 95.5t-29.5 115.5t-10.5 125.5t-1 126.5zM424 551 q0 -59 4 -107.5t18.5 -82t42 -52t74.5 -18.5t75 18.5t42 52t18 82t4 107.5t-4 107.5t-18 82t-42 52t-75 18.5t-74.5 -18.5t-42 -52t-18.5 -82t-4 -107.5z" />
<glyph unicode="e" horiz-adv-x="1144" d="M78 551q0 135 37 239.5t102.5 177t155.5 109.5t198 37q121 0 213.5 -41t154.5 -111.5t95 -166t33 -203.5v-150h-659q0 -68 50 -120t144 -52q88 0 135 23.5t92 68.5l201 -200q-43 -43 -86 -75t-93 -54.5t-110.5 -33.5t-138.5 -11q-92 0 -185 21.5t-168 82t-123 171 t-48 288.5zM408 666h327q0 20 -4 41.5t-14 44.5q-16 35 -51 60.5t-95 25.5q-59 0 -94 -26t-51 -60q-10 -23 -14 -44.5t-4 -41.5z" />
<glyph unicode="f" horiz-adv-x="733" d="M61 801v258h101v96q0 57 19.5 114.5t60.5 104.5t105.5 77t156.5 30h178v-283h-117q-68 0 -67 -68v-71h184v-258h-184v-801h-336v801h-101z" />
<glyph unicode="g" horiz-adv-x="1148" d="M88 592q0 76 2 137.5t11.5 112.5t31 94t57.5 80q98 98 261 98q86 0 140 -25.5t105 -76.5v90h326v-1022q0 -98 -36 -180t-100.5 -141.5t-156.5 -93.5t-205 -34q-129 0 -229 30t-184 114l208 209q39 -39 85.5 -54.5t103.5 -15.5q53 0 88 16.5t54.5 41t27.5 54t8 56.5v80 q-47 -47 -103.5 -69.5t-133.5 -22.5q-160 0 -259 98q-37 37 -58 80t-30.5 94t-11.5 112.5t-2 137.5zM424 592q0 -43 3 -82t16.5 -69.5t40 -49t71.5 -18.5q47 0 72.5 18.5t39 49t16.5 69.5t3 82t-3 82t-16.5 69.5t-39 49t-72.5 18.5q-45 0 -71.5 -18.5t-40 -49t-16.5 -69.5 t-3 -82z" />
<glyph unicode="h" horiz-adv-x="1173" d="M127 0v1458h336v-446q53 53 115.5 77.5t126.5 24.5q90 0 155.5 -30.5t109.5 -85t65.5 -127t21.5 -156.5v-715h-336v668q0 45 -14.5 72.5t-34 43t-42 21.5t-38.5 6t-39 -6t-42 -21.5t-33.5 -43t-14.5 -72.5v-668h-336z" />
<glyph unicode="i" horiz-adv-x="589" d="M90 1356q0 86 59.5 145.5t145.5 59.5t145.5 -59.5t59.5 -145.5t-59.5 -145.5t-145.5 -59.5t-145.5 59.5t-59.5 145.5zM127 0v1059h336v-1059h-336z" />
<glyph unicode="j" horiz-adv-x="589" d="M-57 -86h116q68 0 68 68v1077h336v-1102q0 -57 -19.5 -114.5t-60.5 -104.5t-105.5 -77t-156.5 -30h-178v283zM90 1356q0 86 59.5 145.5t145.5 59.5t145.5 -59.5t59.5 -145.5t-59.5 -145.5t-145.5 -59.5t-145.5 59.5t-59.5 145.5z" />
<glyph unicode="k" horiz-adv-x="1173" d="M127 0v1458h336v-741l297 385h403l-405 -457l416 -645h-416l-230 403l-65 -71v-332h-336z" />
<glyph unicode="l" horiz-adv-x="698" d="M117 326v1132h336v-1108q0 -67 65 -67h2h117v-283h-178q-92 0 -156.5 29.5t-105.5 77t-60.5 104.5t-19.5 115z" />
<glyph unicode="m" horiz-adv-x="1792" d="M127 0v1102h328v-90q51 51 120.5 76.5t135.5 25.5q82 0 148.5 -27.5t119.5 -89.5q72 63 143.5 90t167.5 27q78 0 148.5 -24.5t115.5 -69.5q72 -72 96.5 -149.5t24.5 -165.5v-705h-336v659q0 47 -14 77t-35.5 46.5t-45 22.5t-40.5 6q-16 0 -39.5 -6t-45 -22.5t-36 -46 t-14.5 -77.5v-659h-336v659q0 47 -14 77t-35.5 46.5t-45.5 22.5t-40 6t-39.5 -6t-45 -22.5t-36 -46t-14.5 -77.5v-659h-336z" />
<glyph unicode="n" horiz-adv-x="1185" d="M127 0v1102h328v-90q51 51 120.5 76.5t135.5 25.5q78 0 140 -24.5t107 -69.5q72 -72 91.5 -149.5t19.5 -165.5v-705h-336v659q0 47 -14 77t-35.5 46.5t-45.5 22.5t-40 6t-39.5 -6t-45 -22.5t-36 -46t-14.5 -77.5v-659h-336z" />
<glyph unicode="o" horiz-adv-x="1126" d="M88 551q0 80 6 142.5t19.5 111.5t37 90t58.5 78q49 53 135 97t219 44t219 -44t136 -97q35 -37 58 -78t36.5 -90t19.5 -111.5t6 -142.5q0 -82 -6 -143.5t-19.5 -110.5t-37 -90t-57.5 -78q-25 -27 -59 -51.5t-77 -45t-97 -32.5t-122 -12t-122 12t-97 32.5t-77 45t-58 51.5 q-35 37 -58.5 78t-37 90t-19.5 110.5t-6 143.5zM424 551q0 -82 8 -139.5t41 -89.5q31 -31 90 -31t90 31q33 33 41 90t8 139t-8 139.5t-41 89.5q-31 31 -90 31t-90 -31q-33 -33 -41 -90t-8 -139z" />
<glyph unicode="p" horiz-adv-x="1165" d="M127 -356v1458h326v-90q51 51 109.5 76.5t144.5 25.5q80 0 150.5 -26.5t117.5 -73.5q41 -41 61.5 -95.5t29.5 -116t10 -126t1 -125.5t-1 -126t-10 -126t-29.5 -115.5t-61.5 -95.5q-47 -47 -117 -73.5t-149 -26.5q-82 0 -140.5 22.5t-105.5 69.5v-436h-336zM463 551 q0 -59 4 -107.5t18.5 -82t42 -52t74.5 -18.5t75 18.5t42 52t18 82t4 107.5t-4 107.5t-18 82t-42 52t-75 18.5t-74.5 -18.5t-42 -52t-18.5 -82t-4 -107.5z" />
<glyph unicode="q" horiz-adv-x="1165" d="M88 551q0 61 1 125.5t10.5 126t30 116t60.5 95.5q47 47 118 73.5t151 26.5q86 0 144.5 -25.5t109.5 -76.5v90h325v-1458h-336v436q-47 -47 -105 -69.5t-140 -22.5q-80 0 -149.5 26.5t-117.5 73.5q-41 41 -61 95.5t-29.5 115.5t-10.5 125.5t-1 126.5zM424 551 q0 -59 4 -107.5t18.5 -82t42 -52t74.5 -18.5t75 18.5t42 52t18 82t4 107.5t-4 107.5t-18 82t-42 52t-75 18.5t-74.5 -18.5t-42 -52t-18.5 -82t-4 -107.5z" />
<glyph unicode="r" horiz-adv-x="972" d="M127 0v1102h328v-90q37 37 105.5 69.5t154.5 32.5q82 0 141 -22.5t117 -79.5l-254 -258q-25 25 -51.5 41t-69.5 16q-16 0 -39.5 -6t-45 -22.5t-36 -46t-14.5 -77.5v-659h-336z" />
<glyph unicode="s" horiz-adv-x="1032" d="M20 147l218 218q35 -35 72.5 -53.5t74.5 -28t68.5 -10.5t52.5 -1q18 0 42.5 3.5t47 11.5t38 22.5t15.5 34.5q0 23 -15.5 44.5t-64.5 25.5l-170 16q-72 6 -130 26.5t-100 59.5t-65.5 96.5t-23.5 137.5q0 92 38 159.5t99.5 113.5t140 68.5t160.5 22.5q135 0 243.5 -26.5 t190.5 -108.5l-207 -207q-41 41 -104 53.5t-129 12.5q-61 0 -85 -22.5t-24 -41.5q0 -4 1.5 -13t7.5 -18.5t20 -17.5t43 -12l170 -17q86 -8 149.5 -36.5t103.5 -73.5t59.5 -102.5t19.5 -123.5q0 -98 -39 -167.5t-104.5 -115.5t-151.5 -67.5t-182 -21.5q-61 0 -123 4 t-122 19.5t-118.5 47t-116.5 88.5z" />
<glyph unicode="t" horiz-adv-x="743" d="M51 801v258h101v315h335v-315h175v-258h-175v-451q0 -67 66 -67h2h107v-283h-168q-92 0 -157 29.5t-106 77t-60 104.5t-19 115v475h-101z" />
<glyph unicode="u" horiz-adv-x="1185" d="M117 397v705h336v-660q0 -47 14 -76.5t35.5 -46t45 -22.5t40.5 -6q16 0 39.5 6t45 22.5t36 46t14.5 76.5v660h336v-1102h-328v90q-51 -51 -120.5 -76.5t-135.5 -25.5q-78 0 -140.5 24.5t-107.5 69.5q-72 72 -91 149.5t-19 165.5z" />
<glyph unicode="v" horiz-adv-x="1067" d="M0 1102h352l183 -572l180 572h352l-405 -1102h-256z" />
<glyph unicode="w" horiz-adv-x="1597" d="M0 1102h354l138 -572l190 572h233l191 -572l137 572h354l-331 -1102h-269l-198 604l-199 -604h-268z" />
<glyph unicode="x" horiz-adv-x="1138" d="M0 0l383 563l-369 539h404l149 -266l154 266h403l-368 -539l383 -563h-404l-168 279l-164 -279h-403z" />
<glyph unicode="y" horiz-adv-x="1052" d="M0 1102h352l187 -572l178 572h352l-457 -1233q-33 -92 -86 -145q-49 -53 -111.5 -73t-135.5 -20h-127v303h71q45 0 70.5 15.5t42.5 66.5l31 93z" />
<glyph unicode="z" horiz-adv-x="1001" d="M61 0v248l420 551h-395v303h834v-248l-428 -551h428v-303h-859z" />
<glyph unicode="{" horiz-adv-x="1060" d="M82 578v303h119q78 0 114 37q35 35 35 122v244q0 63 22.5 124.5t76.5 115.5q41 41 101 63.5t142 22.5h287v-303h-143q-43 0 -72 -6.5t-45 -22.5q-33 -33 -33 -131v-213q0 -61 -17.5 -100t-42 -60.5t-50 -31t-39.5 -13.5q14 -4 39.5 -13t50 -30.5t42 -60.5t17.5 -101v-213 q0 -98 33 -131q16 -16 45 -22t72 -6h143v-304h-287q-82 0 -142.5 23t-100.5 63q-53 53 -76 115t-23 125v244q0 88 -35 123q-37 37 -114 37h-119z" />
<glyph unicode="|" horiz-adv-x="745" d="M205 -152v1762h336v-1762h-336z" />
<glyph unicode="}" horiz-adv-x="1060" d="M82 -152v304h143q43 0 72 6t45 22q18 18 25.5 49t7.5 82v213q0 61 17.5 100.5t42 61t50 30.5t39.5 13q-14 4 -39.5 13.5t-50 31t-42 60t-17.5 100.5v213q0 98 -33 131q-16 16 -45 22.5t-72 6.5h-143v303h287q82 0 142 -22.5t101 -63.5q53 -53 76 -114.5t23 -125.5v-244 q0 -88 34 -122q37 -37 115 -37h119v-303h-119q-78 0 -115 -37q-35 -35 -34 -123v-244q0 -63 -22.5 -124.5t-76.5 -115.5q-41 -41 -101 -63.5t-142 -22.5h-287z" />
<glyph unicode="~" horiz-adv-x="1323" d="M61 633q49 49 94.5 86t90.5 61.5t92 36.5t102 12q70 0 125.5 -14t126.5 -55q45 -27 85 -39t87 -12q41 0 83 14t97 70l218 -213q-100 -100 -187.5 -148.5t-195.5 -48.5q-70 0 -125.5 14.5t-126.5 55.5q-45 27 -85 39t-87 12q-41 0 -83 -14.5t-98 -69.5z" />
<glyph horiz-adv-x="1337" d="M0 0l530 1458h277l530 -1458h-374l-68 217h-449l-71 -217h-375zM385 1829q0 59 22.5 110.5t60.5 89.5t90.5 60.5t109.5 22.5q59 0 110.5 -21.5t89.5 -60.5t60.5 -90.5t22.5 -110.5q0 -57 -22.5 -109.5t-60.5 -90t-89.5 -60.5t-110.5 -23q-57 0 -109.5 23t-90.5 60.5 t-60.5 90t-22.5 109.5zM547 516h254l-123 389zM562 1829q0 -43 31.5 -74.5t74.5 -31.5t74.5 31.5t31.5 74.5t-31.5 75t-74.5 32t-74.5 -32t-31.5 -75z" />
<glyph horiz-adv-x="972" d="M78 551q0 180 50 290.5t126 171t162 81t157 20.5q117 0 206 -37t157 -104l-227 -228q-33 33 -64 49.5t-72 16.5q-35 0 -58 -10t-46 -33q-55 -57 -55 -217t55 -217q23 -23 46.5 -33t57.5 -10q41 0 72 16.5t64 48.5l227 -227q-68 -68 -157 -104.5t-206 -36.5 q-72 0 -157.5 20.5t-161.5 81t-126 171t-50 290.5zM309 -410l137 295h236l-74 -295h-299z" />
<glyph horiz-adv-x="1144" d="M78 551q0 135 37 239.5t102.5 177t155.5 109.5t198 37q121 0 213.5 -41t154.5 -111.5t95 -166t33 -203.5v-150h-659q0 -68 50 -120t144 -52q88 0 135 23.5t92 68.5l201 -200q-43 -43 -86 -75t-93 -54.5t-110.5 -33.5t-138.5 -11q-92 0 -185 21.5t-168 82t-123 171 t-48 288.5zM408 666h327q0 20 -4 41.5t-14 44.5q-16 35 -51 60.5t-95 25.5q-59 0 -94 -26t-51 -60q-10 -23 -14 -44.5t-4 -41.5zM461 1249l101 369h344l-242 -369h-203z" />
<glyph horiz-adv-x="1144" d="M78 551q0 135 37 239.5t102.5 177t155.5 109.5t198 37q121 0 213.5 -41t154.5 -111.5t95 -166t33 -203.5v-150h-659q0 -68 50 -120t144 -52q88 0 135 23.5t92 68.5l201 -200q-43 -43 -86 -75t-93 -54.5t-110.5 -33.5t-138.5 -11q-92 0 -185 21.5t-168 82t-123 171 t-48 288.5zM254 1618h344l101 -369h-203zM408 666h327q0 20 -4 41.5t-14 44.5q-16 35 -51 60.5t-95 25.5q-59 0 -94 -26t-51 -60q-10 -23 -14 -44.5t-4 -41.5z" />
<glyph horiz-adv-x="1144" d="M78 551q0 135 37 239.5t102.5 177t155.5 109.5t198 37q121 0 213.5 -41t154.5 -111.5t95 -166t33 -203.5v-150h-659q0 -68 50 -120t144 -52q88 0 135 23.5t92 68.5l201 -200q-43 -43 -86 -75t-93 -54.5t-110.5 -33.5t-138.5 -11q-92 0 -185 21.5t-168 82t-123 171 t-48 288.5zM172 1249l279 367h258l279 -367h-246l-162 170l-162 -170h-246zM408 666h327q0 20 -4 41.5t-14 44.5q-16 35 -51 60.5t-95 25.5q-59 0 -94 -26t-51 -60q-10 -23 -14 -44.5t-4 -41.5z" />
<glyph horiz-adv-x="1185" d="M117 397v705h336v-660q0 -47 14 -76.5t35.5 -46t45 -22.5t40.5 -6q16 0 39.5 6t45 22.5t36 46t14.5 76.5v660h336v-1102h-328v90q-51 -51 -120.5 -76.5t-135.5 -25.5q-78 0 -140.5 24.5t-107.5 69.5q-72 72 -91 149.5t-19 165.5zM262 1618h344l101 -369h-203z" />
<glyph horiz-adv-x="1185" d="M117 397v705h336v-660q0 -47 14 -76.5t35.5 -46t45 -22.5t40.5 -6q16 0 39.5 6t45 22.5t36 46t14.5 76.5v660h336v-1102h-328v90q-51 -51 -120.5 -76.5t-135.5 -25.5q-78 0 -140.5 24.5t-107.5 69.5q-72 72 -91 149.5t-19 165.5zM180 1249l279 367h258l279 -367h-246 l-162 170l-162 -170h-246z" />
<glyph unicode="&#xa0;" horiz-adv-x="1155" d="M96 799v303h314v356h335v-356h314v-303h-314v-799h-335v799h-314z" />
<glyph unicode="&#xa1;" horiz-adv-x="995" d="M96 1094q0 84 32 156.5t86 127t128 86t156 31.5q84 0 156.5 -31.5t127 -86t86 -127t31.5 -156.5q0 -82 -31.5 -156t-86 -128t-127 -86t-156.5 -32q-82 0 -156 32t-128 86t-86 128t-32 156zM365 1094q0 -55 38.5 -94t94.5 -39q55 0 94 39t39 94t-39 94t-94 39t-94 -39 t-39 -94z" />
<glyph unicode="&#xa2;" horiz-adv-x="1021" d="M78 750q0 123 29.5 217t82 161.5t122 109.5t147.5 60v160h258v-160q84 -20 149.5 -61t118.5 -94l-219 -219q-18 18 -39.5 36.5t-50.5 30.5v-483q29 12 50.5 30.5t39.5 36.5l219 -219q-53 -53 -118.5 -94t-149.5 -61v-201h-258v201q-78 18 -147.5 60t-122 109.5t-82 162 t-29.5 217.5zM414 750q0 -78 15 -131.5t44 -83.5l12.5 -12.5t14.5 -10.5v475q-6 -4 -12.5 -9t-12.5 -11q-61 -66 -61 -217z" />
<glyph unicode="&#xa3;" horiz-adv-x="1222" d="M72 569v258h123v131q0 129 47 225.5t123.5 160t176 95t201.5 31.5q127 0 218.5 -34.5t179.5 -124.5l-236 -234q-35 35 -68.5 54.5t-93.5 19.5q-84 0 -137 -48t-53 -153v-123h190v-258h-190v-250h588v-319h-946v569h-123z" />
<glyph unicode="&#xa4;" horiz-adv-x="1056" d="M92 559q0 53 18.5 99.5t44 83t55.5 63t52 41.5q-25 16 -49.5 36.5t-43.5 51.5t-30.5 73t-11.5 97q0 66 21.5 131t70.5 117.5t127 85t189 32.5q113 0 190.5 -30.5t125.5 -81.5t69.5 -117.5t21.5 -140.5h-311q0 47 -29 66.5t-67 19.5q-53 0 -75 -23.5t-22 -48.5 q0 -57 115 -98l111 -41q78 -29 135 -60.5t96 -75.5t58.5 -105.5t19.5 -149.5q0 -53 -17.5 -99.5t-44 -83t-54.5 -63.5t-50 -41q29 -16 54.5 -38.5t46 -55.5t32.5 -77t12 -106q0 -104 -37.5 -177.5t-98 -121t-136.5 -69t-150 -21.5t-149.5 19.5t-136 64.5t-98 118t-37.5 181 h319q0 -35 26.5 -62.5t75.5 -27.5q51 0 77 25.5t26 58.5q0 25 -20.5 57.5t-100.5 61.5l-111 41q-76 29 -134 60.5t-97 75.5t-58.5 105.5t-19.5 149.5zM412 571q0 -49 14 -73.5t27 -34.5q10 -10 30.5 -18.5t48.5 -8.5q29 0 49.5 8.5t30.5 18.5q12 10 26.5 34.5t14.5 73.5 t-14 74t-27 35q-10 10 -30.5 18.5t-49.5 8.5t-49 -8.5t-30 -18.5q-12 -10 -26.5 -34.5t-14.5 -74.5z" />
<glyph unicode="&#xa5;" horiz-adv-x="962" d="M147 684q0 70 27 130t72 105.5t105.5 72t129.5 26.5q70 0 130.5 -26.5t105.5 -72t71.5 -105.5t26.5 -130t-26.5 -130t-71.5 -105.5t-105.5 -72t-130.5 -26.5t-130 26.5t-105 72t-72 105.5t-27 130z" />
<glyph unicode="&#xa6;" horiz-adv-x="1447" d="M61 1030q0 111 38 192t103.5 133t156 77.5t196.5 25.5h745v-1814h-335v1495h-185v-1495h-336v966q-68 0 -136 32t-123.5 88t-89.5 133t-34 167z" />
<glyph unicode="&#xa7;" horiz-adv-x="1196" d="M127 0v1063q0 113 39 190.5t105.5 125.5t155.5 69.5t191 21.5q104 0 192.5 -21.5t151 -67.5t97.5 -115.5t35 -165.5q0 -49 -12.5 -86t-31 -63.5t-40 -44t-41.5 -29.5q47 -23 86 -69t39 -142v-312q0 -174 -86 -262q-45 -45 -114 -68.5t-169 -23.5h-107v283h39q47 0 72 24 q27 25 27 74v264q0 47 -25 72q-25 27 -74 26h-39v258h48q33 0 61.5 16.5t28.5 69.5q0 39 -25 60q-16 16 -46 23.5t-67 7.5q-90 0 -121.5 -36t-31.5 -108v-1034h-338z" />
<glyph unicode="&#xa8;" horiz-adv-x="1683" d="M100 729q0 154 58.5 289t159 235.5t235.5 158.5t289 58t289 -58t235 -158.5t158.5 -235.5t58.5 -289t-58.5 -289t-158.5 -235.5t-235.5 -158.5t-288.5 -58q-154 0 -289 58t-235.5 158.5t-159 235.5t-58.5 289zM311 729q0 -119 40 -219t112 -172t169 -112t210 -40 q115 0 211 40t167.5 112t111.5 172t40 219q0 121 -40 220.5t-111.5 171t-168 111.5t-210.5 40q-113 0 -210 -40t-169 -111.5t-112 -171t-40 -220.5zM557 342v774h346q66 0 115 -21.5t82 -56t50 -80t17 -92.5q0 -78 -38.5 -128t-86.5 -72l146 -324h-240l-117 289h-63v-289 h-211zM768 788h106q39 0 60.5 23.5t21.5 54.5t-21.5 54.5t-60.5 23.5h-106v-156z" />
<glyph unicode="&#xa9;" horiz-adv-x="1683" d="M100 729q0 154 58.5 289t159 235.5t235.5 158.5t289 58t289 -58t235 -158.5t158.5 -235.5t58.5 -289t-58.5 -289t-158.5 -235.5t-235.5 -158.5t-288.5 -58q-154 0 -289 58t-235.5 158.5t-159 235.5t-58.5 289zM311 729q0 -119 40 -219t112 -172t169 -112t210 -40 q115 0 211 40t167.5 112t111.5 172t40 219q0 121 -40 220.5t-111.5 171t-168 111.5t-210.5 40q-113 0 -210 -40t-169 -111.5t-112 -171t-40 -220.5zM489 729q0 104 32 178t84 122t119 70.5t136 22.5q86 0 150.5 -29.5t119.5 -76.5l-137 -137q-35 29 -63.5 42t-69.5 13 q-72 0 -116 -50t-44 -155q0 -104 44 -154.5t116 -50.5q41 0 69.5 13.5t63.5 42.5l137 -138q-55 -47 -119.5 -76.5t-150.5 -29.5q-70 0 -136.5 22.5t-118.5 70.5t-84 122t-32 178z" />
<glyph unicode="&#xaa;" horiz-adv-x="1992" d="M104 1245v213h668v-213h-215v-661h-238v661h-215zM897 584v874h240l239 -430l240 430h239v-874h-239v448l-137 -268h-205l-137 268v-448h-240z" />
<glyph unicode="&#xab;" d="M393 1249l101 369h344l-242 -369h-203z" />
<glyph unicode="&#xac;" d="M109 1393q0 68 48 115.5t115 47.5q68 0 116 -47.5t48 -115.5t-48 -116t-116 -48t-115.5 48t-47.5 116zM588 1393q0 68 48 115.5t116 47.5t115.5 -47.5t47.5 -115.5t-48 -116t-115 -48q-68 0 -116 48t-48 116z" />
<glyph unicode="&#xad;" horiz-adv-x="1310" d="M100 61l99 136h-99v315h330l135 184h-465v316h697l211 286l202 -151l-98 -135h98v-316h-329l-136 -184h465v-315h-696l-211 -287z" />
<glyph unicode="&#xae;" horiz-adv-x="2074" d="M0 0l758 1458h1210v-319h-633v-244h541v-320h-541v-256h633v-319h-991v305h-434l-158 -305h-385zM698 604h279v535z" />
<glyph unicode="&#xaf;" horiz-adv-x="1310" d="M100 729q0 82 1 161t14.5 152.5t44 140t88.5 124.5q80 80 176 121.5t231 41.5q123 0 215 -36l56 114h241l-112 -233l8 -8q57 -57 88 -124t44 -140.5t14 -152.5t1 -161t-1 -161t-14 -152.5t-44 -140t-88 -123.5q-80 -80 -176 -122t-232 -42q-123 0 -215 37l-55 -115h-242 l113 233l-8 9q-57 57 -88 123.5t-44.5 140t-14.5 152.5t-1 161zM459 729q0 -119 6 -190l280 591q-41 20 -90 21q-49 0 -86 -18.5t-57 -45.5q-12 -16 -22.5 -36.5t-16.5 -58.5t-10 -100.5t-4 -162.5zM565 330q39 -23 90 -23q49 0 86 19.5t58 46.5q12 16 22 36.5t16.5 58.5 t10.5 99.5t4 161.5q0 121 -6 191z" />
<glyph unicode="&#xb0;" horiz-adv-x="1794" d="M96 604q0 88 27 165t80 134.5t133 90t188 32.5q111 0 206 -51t167 -129q72 78 167 129t206 51q109 0 188.5 -32.5t133 -90t80 -134.5t26.5 -165t-26.5 -165t-80 -134t-133.5 -90t-188 -33q-111 0 -206 51.5t-167 128.5q-72 -78 -167 -129t-206 -51q-109 0 -188.5 33 t-132.5 90t-80 134t-27 165zM424 594q0 -51 30.5 -75.5t67.5 -24.5q43 0 77 31.5t65 68.5q-31 37 -65 68.5t-77 31.5q-37 0 -67.5 -24.5t-30.5 -75.5zM1130 594q31 -37 65 -68.5t77 -31.5q37 0 67.5 24.5t30.5 75.5t-30.5 75.5t-67.5 24.5q-43 0 -77 -31.5t-65 -68.5z" />
<glyph unicode="&#xb1;" horiz-adv-x="1138" d="M100 0v315h938v-315h-938zM100 760v315h312v311h315v-311h311v-315h-311v-311h-315v311h-312z" />
<glyph unicode="&#xb2;" horiz-adv-x="2103" d="M375 -182v1093l297 297l-4 -874l946 946l223 -223l-946 -946l874 4l-297 -297h-1093z" />
<glyph unicode="&#xb3;" horiz-adv-x="2103" d="M264 1057l223 223l949 -948l-6 874l296 -297v-1091h-1091l-297 297l874 -6z" />
<glyph unicode="&#xb4;" horiz-adv-x="1239" d="M0 1458h391l230 -524l227 524h391l-256 -504h123v-258h-256l-51 -102v-102h307v-259h-307v-233h-359v233h-307v259h307v102l-51 102h-256v258h123z" />
<glyph unicode="&#xb5;" horiz-adv-x="1196" d="M127 -356v1458h336v-660q0 -47 14.5 -76.5t36 -46t45 -22.5t39.5 -6t40 6t45.5 22.5t35.5 46t14 76.5v660h336v-1102h-328v90q-51 -51 -120.5 -76.5t-135.5 -25.5h-22v-344h-336z" />
<glyph unicode="&#xb6;" horiz-adv-x="1148" d="M104 530q0 78 5.5 138.5t19.5 108.5t36.5 87t55.5 76q47 51 126 92t208 41q33 0 66.5 -5t62.5 -19v2q0 8 -7 30.5t-25.5 46t-53.5 42t-90 18.5q-57 0 -103.5 -15.5t-85.5 -54.5l-208 209q84 84 184 113.5t229 29.5q127 0 220.5 -37.5t155 -106.5t92 -162t30.5 -203v-431 q0 -78 -5 -138t-19.5 -107t-36 -86t-56.5 -76q-47 -51 -130 -93t-212 -42t-212 42t-130 93q-33 37 -55.5 76t-36.5 86t-19.5 107.5t-5.5 137.5zM440 530q0 -76 7.5 -129t35.5 -82q29 -29 80 -28q51 0 80 28q29 29 36 82t7 129t-7 129.5t-36 81.5q-29 29 -80 29t-80 -29 t-36 -82t-7 -129z" />
<glyph unicode="&#xb8;" horiz-adv-x="1392" d="M147 -356v1912h1098v-1912h-358v1595h-381v-1595h-359z" />
<glyph unicode="&#xb9;" horiz-adv-x="1212" d="M127 0v1102h958v-1102h-335v782h-287v-782h-336z" />
<glyph unicode="&#xba;" horiz-adv-x="1146" d="M141 -59h113q66 0 103.5 31.5t37.5 103.5v999q0 104 34 183t95.5 131.5t145.5 79t184 26.5h150v-283h-113q-66 0 -103.5 -31.5t-37.5 -103.5v-999q0 -104 -34 -183t-95.5 -131.5t-145.5 -79t-184 -26.5h-150v283z" />
<glyph unicode="&#xbb;" horiz-adv-x="935" d="M88 856q0 49 17.5 96t54.5 82t93 56.5t134 21.5h178v23q0 59 -30.5 84.5t-102.5 25.5q-53 0 -79.5 -13t-59.5 -46l-168 168q35 35 67.5 56.5t70.5 35.5t83 19t100 5q190 0 289 -78.5t99 -240.5v-571h-263v71q-41 -41 -83 -60.5t-113 -19.5q-66 0 -119 21.5t-90 58.5 q-78 78 -78 205zM348 864q0 -29 21.5 -50t62.5 -21t63.5 5t43.5 25q27 27 26 86v25h-135q-41 0 -61.5 -20.5t-20.5 -49.5z" />
<glyph unicode="&#xbc;" horiz-adv-x="954" d="M96 1020q0 129 21.5 203.5t77.5 134.5q39 41 107.5 76.5t174.5 35.5t175 -35.5t108 -76.5q55 -59 76.5 -134t21.5 -204q0 -66 -5 -115t-16.5 -89t-30 -71.5t-46.5 -62.5q-39 -41 -107.5 -77t-175.5 -36q-106 0 -175 36t-107 77q-27 31 -46.5 62.5t-31 71.5t-16.5 89 t-5 115zM367 1020q0 -66 6 -112t33 -72q25 -25 71 -25q47 0 72 25q27 27 33 72.5t6 111.5t-6.5 112t-32.5 72q-25 25 -72 25t-71 -25q-27 -27 -33 -73t-6 -111z" />
<glyph unicode="&#xbd;" horiz-adv-x="1310" d="M100 0v319h93q-18 23 -30.5 48.5t-21.5 50.5q-23 70 -32 147.5t-9 163.5q0 82 1 161t14.5 152.5t44 140t88.5 124.5q80 80 176 121.5t231 41.5t231.5 -42t176.5 -121q57 -57 88 -124t44 -140.5t14 -152.5t1 -161q0 -86 -9 -164t-32 -147q-8 -25 -20 -50.5t-31 -48.5h92 v-319h-477v279q43 20 66 51q12 16 22 39.5t16.5 65.5t10.5 107.5t4 166.5q0 100 -4 164.5t-10.5 106.5t-16.5 64.5t-22 38.5q-20 27 -57 47.5t-87 20.5q-49 0 -86 -20.5t-57 -47.5q-12 -16 -22.5 -38.5t-16.5 -64.5t-10 -106.5t-4 -164.5t4 -166t10 -108t16.5 -65.5 t22.5 -39.5q23 -31 66 -51v-279h-478z" />
<glyph unicode="&#xbe;" horiz-adv-x="1720" d="M55 346q0 61 21.5 119.5t67.5 102.5t117 71t169 27h223v28q0 76 -39 106.5t-127 30.5q-66 0 -100.5 -16t-75.5 -57l-209 209q43 43 84 70.5t89.5 45t103.5 24.5t125 7q229 0 348 -92q121 92 295 92q121 0 213 -41t154.5 -111.5t95 -166t32.5 -203.5v-150h-659 q0 -68 50 -120t145 -52q88 0 135 23.5t92 68.5l201 -200q-43 -43 -86 -75t-93.5 -54.5t-111 -33.5t-137.5 -11q-102 0 -205 27.5t-180 105.5q-49 -45 -95.5 -71.5t-92.5 -41t-92 -17.5t-97 -3q-84 0 -150.5 26.5t-113.5 73.5t-72 113.5t-25 144.5zM377 354q0 -37 27.5 -64.5 t82.5 -27.5q49 0 77 7t57 34q33 31 32 111v28h-170q-49 0 -77.5 -24.5t-28.5 -63.5zM983 666h328q0 20 -4 41.5t-15 44.5q-16 35 -51 60.5t-94 25.5t-94 -26t-52 -60q-10 -23 -14 -44.5t-4 -41.5z" />
<glyph unicode="&#xbf;" horiz-adv-x="1126" d="M88 551q0 80 6 142.5t19.5 111.5t37 90t58.5 78q49 53 135 97t219 44q66 0 118 -11t95 -30l70 119h190l-125 -213q45 -47 71 -96t38 -102.5t15 -111t3 -118.5q0 -82 -6 -143.5t-19.5 -110.5t-37 -90t-57.5 -78q-25 -27 -59 -51.5t-77 -45t-97 -32.5t-122 -12 q-66 0 -118 11t-95 30l-69 -119h-191l125 213q-45 47 -70.5 96t-38 102.5t-15.5 109.5t-3 120zM424 496.5q0 -25.5 4 -47.5l205 348q-27 14 -70 14q-59 0 -90 -31q-33 -33 -41 -90t-8 -139v-54.5zM494 305q27 -14 69 -14q59 0 90 31q33 33 41 90t8 139v54.5t-4 47.5z" />
<glyph unicode="&#xc0;" horiz-adv-x="1101" d="M123 61q0 80 30.5 143.5t73.5 119.5l142 178q14 16 25.5 42.5t11.5 53.5v18h335v-47q0 -70 -18 -122t-66 -105l-143 -168q-23 -27 -39 -58.5t-16 -56.5q0 -53 30.5 -89t92.5 -36q66 0 94.5 37t28.5 92h335q0 -104 -36.5 -185t-99 -135t-146.5 -83t-176 -29q-90 0 -173 28 t-146.5 81t-101.5 134t-38 187zM379 913q0 41 15.5 76t42 61.5t62.5 42t74 15.5q41 0 76 -15.5t61.5 -42t42 -61.5t15.5 -76q0 -39 -15.5 -74.5t-42 -62t-61.5 -42t-76 -15.5q-39 0 -74.5 15.5t-62 42t-42 62t-15.5 74.5z" />
<glyph unicode="&#xc1;" horiz-adv-x="749" d="M205 -356l90 972h242l90 -972h-422zM221 913q0 41 15.5 76t42 61.5t62.5 42t75 15.5q41 0 75.5 -15.5t61.5 -42t42 -61.5t15 -76q0 -39 -15 -74.5t-42 -62t-61.5 -42t-75.5 -15.5q-39 0 -75 15.5t-62.5 42t-42 62t-15.5 74.5z" />
<glyph unicode="&#xc2;" horiz-adv-x="1138" d="M88 487v316h963v-623h-316v307h-647z" />
<glyph unicode="&#xc3;" horiz-adv-x="1261" d="M0 1102h362l138 -459l241 815h459v-319h-192l-377 -1139h-266z" />
<glyph unicode="&#xc4;" horiz-adv-x="903" d="M0 -356l164 925h-101v258h146l57 328q10 57 40 115.5t79 105.5t118.5 76t162.5 29l176 -2v-281h-164q-68 0 -80 -68l-53 -303h184v-258h-229l-164 -925h-336z" />
<glyph unicode="&#xc5;" horiz-adv-x="1323" d="M61 369q100 100 187.5 148t195.5 48q70 0 125.5 -14t126.5 -55q45 -27 85 -39.5t87 -12.5q41 0 83 14.5t98 69.5l213 -213q-49 -49 -94.5 -85.5t-90.5 -61.5t-92 -37t-102 -12q-70 0 -125.5 14t-126.5 55q-45 27 -85 39.5t-87 12.5q-41 0 -83 -14.5t-97 -69.5zM61 889 q49 49 94.5 86t90.5 61.5t92 36.5t102 12q70 0 125.5 -14t126.5 -55q45 -27 85 -39t87 -12q41 0 83 14t97 70l218 -213q-100 -100 -187.5 -148.5t-195.5 -48.5q-70 0 -125.5 14.5t-126.5 55.5q-45 27 -85 39t-87 12q-41 0 -83 -14.5t-98 -69.5z" />
<glyph unicode="&#xc6;" horiz-adv-x="1337" d="M0 0l530 1458h277l530 -1458h-1337zM475 299h393l-190 606z" />
<glyph unicode="&#xc7;" horiz-adv-x="1376" d="M61 573l560 553v-395l-162 -158l162 -159v-396zM694 573l559 553v-395l-166 -158l166 -159v-396z" />
<glyph unicode="&#xc8;" horiz-adv-x="1376" d="M123 18v396l164 159l-164 158v395l559 -553zM756 18v396l162 159l-162 158v395l559 -553z" />
<glyph unicode="&#xc9;" horiz-adv-x="1841" d="M100 209q0 45 17.5 84t46.5 68.5t67.5 46t83.5 16.5t84 -16.5t69 -46t46 -68.5t16 -84t-16 -84t-46 -67.5t-69 -46t-84 -17.5t-83.5 17.5t-67.5 46t-46.5 67.5t-17.5 84zM705 209q0 45 17 84t46 68.5t69 46t83 16.5q45 0 83.5 -16.5t68.5 -46t46.5 -68.5t16.5 -84 t-16.5 -84t-45.5 -67.5t-68.5 -46t-82.5 -17.5q-45 0 -84 17.5t-69 46t-47 67.5t-17 84zM1311 209q0 45 17.5 84t46 68.5t67.5 46t84 16.5t84 -16.5t68.5 -46t46 -68.5t16.5 -84t-16.5 -84t-46 -67.5t-68.5 -46t-84 -17.5t-84 17.5t-67.5 46t-46 67.5t-17.5 84z" />
<glyph unicode="&#xca;" horiz-adv-x="454" />
<glyph unicode="&#xcb;" horiz-adv-x="1337" d="M0 0l530 1458h277l530 -1458h-374l-68 217h-449l-71 -217h-375zM342 1970h344l101 -369h-203zM547 516h254l-123 389z" />
<glyph unicode="&#xcc;" horiz-adv-x="1337" d="M0 0l530 1458h277l530 -1458h-374l-68 217h-449l-71 -217h-375zM273 1788q66 66 122 97.5t128 31.5q47 0 82.5 -8.5t82.5 -36.5q29 -16 55.5 -25.5t57.5 -9.5q29 0 55.5 9t63.5 46l143 -141q-66 -66 -123 -97.5t-129 -31.5q-47 0 -82.5 8t-83.5 37q-29 16 -56 25.5 t-58 9.5q-29 0 -55.5 -9.5t-63.5 -46.5zM547 516h254l-123 389z" />
<glyph unicode="&#xcd;" horiz-adv-x="1310" d="M100 729q0 82 1 161t14.5 152.5t44 140t88.5 124.5q80 80 176 121.5t231 41.5t231.5 -42t176.5 -121q57 -57 88 -124t44 -140.5t14 -152.5t1 -161t-1 -161t-14 -152.5t-44 -140t-88 -123.5q-80 -80 -176 -122t-232 -42q-135 0 -231 42t-176 122q-57 57 -88 123.5 t-44.5 140t-14.5 152.5t-1 161zM260 1788q66 66 122 97.5t128 31.5q47 0 82.5 -8.5t82.5 -36.5q29 -16 55.5 -25.5t57.5 -9.5q29 0 55.5 9t63.5 46l143 -141q-66 -66 -123 -97.5t-129 -31.5q-47 0 -82.5 8t-83.5 37q-29 16 -56 25.5t-58 9.5q-29 0 -55.5 -9.5t-63.5 -46.5z M459 729q0 -100 4 -161.5t10 -99.5t16.5 -58.5t22.5 -36.5q20 -27 57 -46.5t86 -19.5t86 19.5t58 46.5q12 16 22 36.5t16.5 58.5t10.5 99.5t4 161.5t-4 162.5t-10.5 100.5t-16.5 58.5t-22 36.5q-20 27 -57 45.5t-87 18.5q-49 0 -86 -18.5t-57 -45.5q-12 -16 -22.5 -36.5 t-16.5 -58.5t-10 -100.5t-4 -162.5z" />
<glyph unicode="&#xce;" horiz-adv-x="1949" d="M100 729q0 82 2 163t15.5 156.5t44.5 143.5t86 123q80 80 172 117.5t225 37.5q45 0 104.5 -12t102.5 -53v53h991v-319h-633v-244h541v-320h-541v-256h633v-319h-991v53q-43 -41 -103.5 -53t-105.5 -12q-133 0 -224 37.5t-171 117.5q-55 55 -86 124t-44.5 143.5 t-15.5 155.5t-2 163zM459 729q0 -100 4 -161.5t10 -99.5t16.5 -58.5t22.5 -36.5q20 -27 57 -46.5t86 -19.5t86 19.5t58 46.5q12 16 22 36.5t16.5 58.5t10.5 99.5t4 161.5t-4 162.5t-10.5 100.5t-16.5 58.5t-22 36.5q-20 27 -57 45.5t-87 18.5q-49 0 -86 -18.5t-57 -45.5 q-12 -16 -22.5 -36.5t-16.5 -58.5t-10 -100.5t-4 -162.5z" />
<glyph unicode="&#xcf;" horiz-adv-x="1769" d="M88 551q0 80 6 142.5t19.5 111.5t37 90t58.5 78q49 53 135 97t219 44q113 0 190.5 -32.5t129.5 -75.5q125 109 313 108q121 0 213 -41t154.5 -111.5t95.5 -166t33 -203.5v-150h-660q0 -68 50.5 -120t144.5 -52q88 0 135 23.5t92 68.5l201 -200q-43 -43 -86 -75 t-93.5 -54.5t-110.5 -33.5t-138 -11q-92 0 -184.5 21.5t-165.5 80.5q-51 -41 -127 -71.5t-187 -30.5q-68 0 -122 12t-97 32.5t-77 45t-58 51.5q-35 37 -58.5 78t-37 90t-19.5 110.5t-6 143.5zM424 551q0 -82 8 -139.5t41 -89.5q31 -31 90 -31t90 31q33 33 41 90t8 139 t-8 139.5t-41 89.5q-31 31 -90 31t-90 -31q-33 -33 -41 -90t-8 -139zM1032 666h328q0 20 -4 41.5t-15 44.5q-16 35 -51 60.5t-94 25.5t-94 -26t-51 -60q-10 -23 -14.5 -44.5t-4.5 -41.5z" />
<glyph unicode="&#xd0;" horiz-adv-x="1138" d="M100 446v316h938v-316h-938z" />
<glyph unicode="&#xd1;" horiz-adv-x="2238" d="M100 451v323h2038v-323h-2038z" />
<glyph unicode="&#xd2;" horiz-adv-x="1046" d="M117 1159v299l334 246v-545h-334zM594 1159v299l336 246v-545h-336z" />
<glyph unicode="&#xd3;" horiz-adv-x="1046" d="M117 915v543h334v-301zM594 915v543h336v-301z" />
<glyph unicode="&#xd4;" horiz-adv-x="569" d="M117 1159v299l336 246v-545h-336z" />
<glyph unicode="&#xd5;" horiz-adv-x="569" d="M117 915v543h336v-301z" />
<glyph unicode="&#xd6;" horiz-adv-x="1138" d="M88 446v316h963v-316h-963zM354 147q0 45 17.5 84t46 69t67.5 46t84 16t84 -16t69 -46t46 -69t16 -84t-16 -83.5t-46 -68.5t-69 -46.5t-84 -16.5t-84 16.5t-67.5 46.5t-46 68.5t-17.5 83.5zM354 1061q0 45 17.5 84t46 68.5t67.5 46t84 16.5t84 -16.5t69 -46t46 -68.5 t16 -84t-16 -84t-46 -67.5t-69 -46t-84 -17.5t-84 17.5t-67.5 46t-46 67.5t-17.5 84z" />
<glyph unicode="&#xd7;" horiz-adv-x="1286" d="M96 684l547 754l547 -754l-547 -754zM475 684l168 -229l168 229l-168 229z" />
<glyph unicode="&#xd8;" horiz-adv-x="1052" d="M0 1102h352l187 -572l178 572h352l-457 -1233q-33 -92 -86 -145q-49 -53 -111.5 -73t-135.5 -20h-127v303h71q45 0 70.5 15.5t42.5 66.5l31 93zM123 1393q0 68 48 115.5t115 47.5q68 0 116 -47.5t48 -115.5t-48 -116t-116 -48t-115.5 48t-47.5 116zM602 1393 q0 68 48 115.5t116 47.5t115.5 -47.5t47.5 -115.5t-48 -116t-115 -48q-68 0 -116 48t-48 116z" />
<glyph unicode="&#xd9;" horiz-adv-x="1239" d="M0 1458h391l230 -524l227 524h391l-440 -864v-594h-359v594zM215 1745q0 68 48 115.5t115 47.5q68 0 116 -47.5t48 -115.5t-48 -116t-116 -48t-115.5 48t-47.5 116zM694 1745q0 68 48 115.5t116 47.5t115.5 -47.5t47.5 -115.5t-48 -116t-115 -48q-68 0 -116 48t-48 116z " />
<glyph unicode="&#xda;" horiz-adv-x="452" d="M-250 0l694 1458h258l-694 -1458h-258z" />
<glyph unicode="&#xdb;" horiz-adv-x="1380" d="M96 233l150 150q-25 51 -39 106.5t-14 114.5t14 114.5t39 106.5l-150 150l223 223l150 -149q51 25 106.5 39t114.5 14t114.5 -14.5t106.5 -38.5l150 149l223 -223l-149 -150q25 -51 39 -106t14 -115q0 -59 -14.5 -114.5t-38.5 -106.5l149 -150l-223 -223l-150 150 q-51 -25 -106 -39.5t-115 -14.5q-59 0 -114.5 14.5t-106.5 39.5l-150 -150zM496 604q0 -39 15 -74.5t42 -62.5t62.5 -42t74.5 -15q41 0 76 15t61.5 42t42 62.5t15.5 74.5q0 41 -15.5 76t-42 61.5t-61.5 42t-76 15.5q-39 0 -74.5 -15.5t-62.5 -42t-42 -61.5t-15 -76z" />
<glyph unicode="&#xdc;" horiz-adv-x="743" d="M61 573l560 553v-395l-162 -158l162 -159v-396z" />
<glyph unicode="&#xdd;" horiz-adv-x="743" d="M123 18v396l164 159l-164 158v395l559 -553z" />
<glyph unicode="&#xde;" horiz-adv-x="1282" d="M51 801v258h101v96q0 57 19 114.5t60 104.5t105.5 77t157.5 30h178v-283h-117q-68 0 -68 -68v-71h185v-258h-185v-801h-335v801h-101zM782 1356q0 86 59.5 145.5t145.5 59.5t145.5 -59.5t59.5 -145.5t-59.5 -145.5t-145.5 -59.5t-145.5 59.5t-59.5 145.5zM819 0v1059h336 v-1059h-336z" />
<glyph unicode="&#xdf;" horiz-adv-x="1380" d="M51 801v258h101v96q0 57 19 114.5t60 104.5t105.5 77t157.5 30h178v-283h-117q-68 0 -68 -68v-71h185v-258h-185v-801h-335v801h-101zM819 326v1132h336v-1108q0 -68 68 -67h116v-283h-178q-92 0 -156.5 29.5t-105.5 77t-60.5 104.5t-19.5 115z" />
<glyph unicode="&#xe0;" horiz-adv-x="1155" d="M96 0v303h314v496h-314v303h314v356h335v-356h314v-303h-314v-496h314v-303h-314v-356h-335v356h-314z" />
<glyph unicode="&#xe1;" horiz-adv-x="630" d="M100 604q0 45 17.5 84t46.5 68.5t67.5 46t83.5 16.5t84 -16.5t69 -46t46 -68.5t16 -84t-16 -84t-46 -67.5t-69 -46t-84 -17.5t-83.5 17.5t-67.5 46t-46.5 67.5t-17.5 84z" />
<glyph unicode="&#xe2;" horiz-adv-x="565" d="M117 -242v543h336v-301z" />
<glyph unicode="&#xe3;" horiz-adv-x="1052" d="M117 -242v543h334v-301zM594 -242v543h336v-301z" />
<glyph unicode="&#xe4;" horiz-adv-x="2516" d="M92 991v195q0 74 25.5 127t68.5 88t98.5 52t116.5 17t116.5 -17t98.5 -52t69 -88t26 -127v-195q0 -74 -26 -127t-69 -88t-98 -52t-117 -17q-61 0 -116.5 17t-98.5 52t-68.5 88.5t-25.5 126.5zM330 999q0 -45 20.5 -62t50.5 -17q31 0 51.5 17t20.5 62v179q0 45 -20.5 62 t-51.5 17t-51 -17t-20 -62v-179zM401 0l695 1458h258l-695 -1458h-258zM1044 272v195q0 74 26 127t69 88t98 52.5t117 17.5q61 0 116.5 -17.5t98.5 -52.5t68.5 -88t25.5 -127v-195q0 -74 -25.5 -127t-68.5 -87.5t-98.5 -52t-116.5 -17.5t-116.5 17.5t-98.5 52t-69 88 t-26 126.5zM1282 281q0 -45 20.5 -62.5t51.5 -17.5t51 17.5t20 62.5v178q0 45 -20.5 62.5t-50.5 17.5q-31 0 -51.5 -17.5t-20.5 -62.5v-178zM1806 272v195q0 74 26 127t69 88t98 52.5t117 17.5q61 0 116.5 -17.5t98.5 -52.5t68.5 -88t25.5 -127v-195q0 -74 -25.5 -127 t-68.5 -87.5t-98.5 -52t-116.5 -17.5t-116.5 17.5t-98.5 52t-69 88t-26 126.5zM2044 281q0 -45 20.5 -62.5t51.5 -17.5t51 17.5t20 62.5v178q0 45 -20.5 62.5t-50.5 17.5q-31 0 -51.5 -17.5t-20.5 -62.5v-178z" />
<glyph unicode="&#xe5;" horiz-adv-x="1337" d="M0 0l530 1458h277l530 -1458h-374l-68 217h-449l-71 -217h-375zM260 1601l279 367h258l279 -367h-246l-162 170l-162 -170h-246zM547 516h254l-123 389z" />
<glyph unicode="&#xe6;" horiz-adv-x="1245" d="M147 0v1458h992v-319h-633v-244h541v-320h-541v-256h633v-319h-992zM223 1601l279 367h258l279 -367h-246l-162 170l-162 -170h-246z" />
<glyph unicode="&#xe7;" horiz-adv-x="1337" d="M0 0l530 1458h277l530 -1458h-374l-68 217h-449l-71 -217h-375zM547 516h254l-123 389zM549 1601l101 369h344l-242 -369h-203z" />
<glyph unicode="&#xe8;" horiz-adv-x="1245" d="M147 0v1458h992v-319h-633v-244h541v-320h-541v-256h633v-319h-992zM228 1745q0 68 48 115.5t115 47.5q68 0 116 -47.5t48 -115.5t-48 -116t-116 -48t-115.5 48t-47.5 116zM707 1745q0 68 48 115.5t116 47.5t115.5 -47.5t47.5 -115.5t-48 -116t-115 -48q-68 0 -116 48 t-48 116z" />
<glyph unicode="&#xe9;" horiz-adv-x="1245" d="M147 0v1458h992v-319h-633v-244h541v-320h-541v-256h633v-319h-992zM305 1970h344l101 -369h-203z" />
<glyph unicode="&#xea;" horiz-adv-x="653" d="M147 0v1458h359v-1458h-359zM211 1601l101 369h344l-242 -369h-203z" />
<glyph unicode="&#xeb;" horiz-adv-x="653" d="M-91 1601l279 367h258l279 -367h-246l-162 170l-162 -170h-246zM147 0v1458h359v-1458h-359z" />
<glyph unicode="&#xec;" horiz-adv-x="653" d="M-75 1745q0 68 48 115.5t115 47.5q68 0 116 -47.5t48 -115.5t-48 -116t-116 -48t-115.5 48t-47.5 116zM147 0v1458h359v-1458h-359zM404 1745q0 68 48 115.5t116 47.5t115.5 -47.5t47.5 -115.5t-48 -116t-115 -48q-68 0 -116 48t-48 116z" />
<glyph unicode="&#xed;" horiz-adv-x="653" d="M18 1970h344l101 -369h-203zM147 0v1458h359v-1458h-359z" />
<glyph unicode="&#xee;" horiz-adv-x="1310" d="M100 729q0 82 1 161t14.5 152.5t44 140t88.5 124.5q80 80 176 121.5t231 41.5t231.5 -42t176.5 -121q57 -57 88 -124t44 -140.5t14 -152.5t1 -161t-1 -161t-14 -152.5t-44 -140t-88 -123.5q-80 -80 -176 -122t-232 -42q-135 0 -231 42t-176 122q-57 57 -88 123.5 t-44.5 140t-14.5 152.5t-1 161zM459 729q0 -100 4 -161.5t10 -99.5t16.5 -58.5t22.5 -36.5q20 -27 57 -46.5t86 -19.5t86 19.5t58 46.5q12 16 22 36.5t16.5 58.5t10.5 99.5t4 161.5t-4 162.5t-10.5 100.5t-16.5 58.5t-22 36.5q-20 27 -57 45.5t-87 18.5q-49 0 -86 -18.5 t-57 -45.5q-12 -16 -22.5 -36.5t-16.5 -58.5t-10 -100.5t-4 -162.5zM536 1601l101 369h344l-242 -369h-203z" />
<glyph unicode="&#xef;" horiz-adv-x="1310" d="M100 729q0 82 1 161t14.5 152.5t44 140t88.5 124.5q80 80 176 121.5t231 41.5t231.5 -42t176.5 -121q57 -57 88 -124t44 -140.5t14 -152.5t1 -161t-1 -161t-14 -152.5t-44 -140t-88 -123.5q-80 -80 -176 -122t-232 -42q-135 0 -231 42t-176 122q-57 57 -88 123.5 t-44.5 140t-14.5 152.5t-1 161zM247 1601l279 367h258l279 -367h-246l-162 170l-162 -170h-246zM459 729q0 -100 4 -161.5t10 -99.5t16.5 -58.5t22.5 -36.5q20 -27 57 -46.5t86 -19.5t86 19.5t58 46.5q12 16 22 36.5t16.5 58.5t10.5 99.5t4 161.5t-4 162.5t-10.5 100.5 t-16.5 58.5t-22 36.5q-20 27 -57 45.5t-87 18.5q-49 0 -86 -18.5t-57 -45.5q-12 -16 -22.5 -36.5t-16.5 -58.5t-10 -100.5t-4 -162.5z" />
<glyph unicode="&#xf1;" horiz-adv-x="1310" d="M100 729q0 82 1 161t14.5 152.5t44 140t88.5 124.5q80 80 176 121.5t231 41.5t231.5 -42t176.5 -121q57 -57 88 -124t44 -140.5t14 -152.5t1 -161t-1 -161t-14 -152.5t-44 -140t-88 -123.5q-80 -80 -176 -122t-232 -42q-135 0 -231 42t-176 122q-57 57 -88 123.5 t-44.5 140t-14.5 152.5t-1 161zM329 1970h344l101 -369h-203zM459 729q0 -100 4 -161.5t10 -99.5t16.5 -58.5t22.5 -36.5q20 -27 57 -46.5t86 -19.5t86 19.5t58 46.5q12 16 22 36.5t16.5 58.5t10.5 99.5t4 161.5t-4 162.5t-10.5 100.5t-16.5 58.5t-22 36.5q-20 27 -57 45.5 t-87 18.5q-49 0 -86 -18.5t-57 -45.5q-12 -16 -22.5 -36.5t-16.5 -58.5t-10 -100.5t-4 -162.5z" />
<glyph unicode="&#xf2;" horiz-adv-x="1351" d="M123 512v946h358v-938q0 -102 51.5 -157.5t141.5 -55.5t143 55.5t53 157.5v938h359v-946q0 -119 -44 -216t-120 -166t-176.5 -105.5t-214.5 -36.5q-113 0 -213.5 36.5t-176 105.5t-118.5 166t-43 216zM557 1601l101 369h344l-242 -369h-203z" />
<glyph unicode="&#xf3;" horiz-adv-x="1351" d="M123 512v946h358v-938q0 -102 51.5 -157.5t141.5 -55.5t143 55.5t53 157.5v938h359v-946q0 -119 -44 -216t-120 -166t-176.5 -105.5t-214.5 -36.5q-113 0 -213.5 36.5t-176 105.5t-118.5 166t-43 216zM268 1601l279 367h258l279 -367h-246l-162 170l-162 -170h-246z" />
<glyph unicode="&#xf4;" horiz-adv-x="1351" d="M123 512v946h358v-938q0 -102 51.5 -157.5t141.5 -55.5t143 55.5t53 157.5v938h359v-946q0 -119 -44 -216t-120 -166t-176.5 -105.5t-214.5 -36.5q-113 0 -213.5 36.5t-176 105.5t-118.5 166t-43 216zM350 1970h344l101 -369h-203z" />
<glyph unicode="&#xf5;" horiz-adv-x="589" d="M127 0v1102h336v-1102h-336z" />
<glyph unicode="&#xf6;" d="M104 1249l279 367h258l279 -367h-246l-162 170l-162 -170h-246z" />
<glyph unicode="&#xf7;" d="M117 1436q66 66 122 97.5t128 31.5q47 0 82.5 -8.5t82.5 -36.5q29 -16 55.5 -25.5t57.5 -9.5q29 0 55.5 9t63.5 46l143 -141q-66 -66 -123 -97.5t-129 -31.5q-47 0 -82.5 8t-83.5 37q-29 16 -56 25.5t-58 9.5q-29 0 -55.5 -9.5t-63.5 -46.5z" />
<glyph unicode="&#xf8;" d="M178 1309v215h668v-215h-668z" />
<glyph unicode="&#xf9;" d="M176 1536h217q2 -29 14.5 -47.5t29 -29.5t37 -15t38.5 -4t38.5 4t38 15t29 29.5t13.5 47.5h217q-2 -90 -33 -151.5t-78 -99.5t-106.5 -54.5t-118.5 -16.5t-117.5 16.5t-106.5 54.5t-79 99.5t-33 151.5z" />
<glyph unicode="&#xfa;" d="M344 1214v256h336v-256h-336z" />
<glyph unicode="&#xfb;" d="M229 1497q0 59 22.5 110.5t60.5 89.5t90.5 60.5t109.5 22.5q59 0 110.5 -21.5t89.5 -60.5t60.5 -90.5t22.5 -110.5q0 -57 -22.5 -109.5t-60.5 -90t-89.5 -60.5t-110.5 -23q-57 0 -109.5 23t-90.5 60.5t-60.5 90t-22.5 109.5zM406 1497q0 -43 31.5 -74.5t74.5 -31.5 t74.5 31.5t31.5 74.5t-31.5 75t-74.5 32t-74.5 -32t-31.5 -75z" />
<glyph unicode="&#xfc;" d="M309 -410l137 295h236l-74 -295h-299z" />
<glyph unicode="&#xfd;" d="M51 1249l101 369h344l-240 -369h-205zM528 1249l101 369h344l-242 -369h-203z" />
<glyph unicode="&#xfe;" d="M326 -115h235l137 -295h-299z" />
<glyph unicode="&#xff;" d="M104 1616h246l162 -170l162 170h246l-279 -367h-258z" />
<glyph unicode="&#x152;" horiz-adv-x="1097" d="M55 346q0 61 21.5 119.5t67.5 102.5t117 71t169 27h223v28q0 76 -39 106.5t-127 30.5q-66 0 -100.5 -16t-75.5 -57l-209 209q43 43 84 70.5t89.5 45t103.5 24.5t125 7q238 0 361.5 -98t123.5 -301v-715h-327v90q-51 -51 -104.5 -75.5t-141.5 -24.5q-84 0 -150.5 25.5 t-113.5 72.5t-72 113.5t-25 144.5zM262 1497q0 59 22.5 110.5t60.5 89.5t90.5 60.5t109.5 22.5q59 0 110.5 -21.5t89.5 -60.5t60.5 -90.5t22.5 -110.5q0 -57 -22.5 -109.5t-60.5 -90t-89.5 -60.5t-110.5 -23q-57 0 -109.5 23t-90.5 60.5t-60.5 90t-22.5 109.5zM377 354 q0 -37 27.5 -64.5t82.5 -27.5q49 0 77 7t57 34q33 31 32 111v28h-170q-49 0 -77.5 -24.5t-28.5 -63.5zM439 1497q0 -43 31.5 -74.5t74.5 -31.5t74.5 31.5t31.5 74.5t-31.5 75t-74.5 32t-74.5 -32t-31.5 -75z" />
<glyph unicode="&#x153;" horiz-adv-x="1185" d="M117 397v705h336v-660q0 -47 14 -76.5t35.5 -46t45 -22.5t40.5 -6q16 0 39.5 6t45 22.5t36 46t14.5 76.5v660h336v-1102h-328v90q-51 -51 -120.5 -76.5t-135.5 -25.5q-78 0 -140.5 24.5t-107.5 69.5q-72 72 -91 149.5t-19 165.5zM469 1249l101 369h344l-242 -369h-203z " />
<glyph unicode="&#x178;" horiz-adv-x="1185" d="M117 397v705h336v-660q0 -47 14 -76.5t35.5 -46t45 -22.5t40.5 -6q16 0 39.5 6t45 22.5t36 46t14.5 76.5v660h336v-1102h-328v90q-51 -51 -120.5 -76.5t-135.5 -25.5q-78 0 -140.5 24.5t-107.5 69.5q-72 72 -91 149.5t-19 165.5zM185 1393q0 68 48 115.5t115 47.5 q68 0 116 -47.5t48 -115.5t-48 -116t-116 -48t-115.5 48t-47.5 116zM664 1393q0 68 48 115.5t116 47.5t115.5 -47.5t47.5 -115.5t-48 -116t-115 -48q-68 0 -116 48t-48 116z" />
<glyph unicode="&#x2c6;" horiz-adv-x="1097" d="M55 346q0 61 21.5 119.5t67.5 102.5t117 71t169 27h223v28q0 76 -39 106.5t-127 30.5q-66 0 -100.5 -16t-75.5 -57l-209 209q43 43 84 70.5t89.5 45t103.5 24.5t125 7q238 0 361.5 -98t123.5 -301v-715h-327v90q-51 -51 -104.5 -75.5t-141.5 -24.5q-84 0 -150.5 25.5 t-113.5 72.5t-72 113.5t-25 144.5zM219 1618h344l101 -369h-203zM377 354q0 -37 27.5 -64.5t82.5 -27.5q49 0 77 7t57 34q33 31 32 111v28h-170q-49 0 -77.5 -24.5t-28.5 -63.5z" />
<glyph unicode="&#x2dc;" horiz-adv-x="1126" d="M88 551q0 80 6 142.5t19.5 111.5t37 90t58.5 78q49 53 135 97t219 44t219 -44t136 -97q35 -37 58 -78t36.5 -90t19.5 -111.5t6 -142.5q0 -82 -6 -143.5t-19.5 -110.5t-37 -90t-57.5 -78q-25 -27 -59 -51.5t-77 -45t-97 -32.5t-122 -12t-122 12t-97 32.5t-77 45t-58 51.5 q-35 37 -58.5 78t-37 90t-19.5 110.5t-6 143.5zM237 1618h344l101 -369h-203zM424 551q0 -82 8 -139.5t41 -89.5q31 -31 90 -31t90 31q33 33 41 90t8 139t-8 139.5t-41 89.5q-31 31 -90 31t-90 -31q-33 -33 -41 -90t-8 -139z" />
<glyph unicode="&#x2000;" horiz-adv-x="1056" />
<glyph unicode="&#x2001;" horiz-adv-x="2112" />
<glyph unicode="&#x2002;" horiz-adv-x="1056" />
<glyph unicode="&#x2003;" horiz-adv-x="2112" />
<glyph unicode="&#x2004;" horiz-adv-x="704" />
<glyph unicode="&#x2005;" horiz-adv-x="528" />
<glyph unicode="&#x2006;" horiz-adv-x="352" />
<glyph unicode="&#x2007;" horiz-adv-x="352" />
<glyph unicode="&#x2008;" horiz-adv-x="264" />
<glyph unicode="&#x2009;" horiz-adv-x="422" />
<glyph unicode="&#x200a;" horiz-adv-x="117" />
<glyph unicode="&#x2010;" horiz-adv-x="872" d="M100 446v316h672v-316h-672z" />
<glyph unicode="&#x2011;" horiz-adv-x="872" d="M100 446v316h672v-316h-672z" />
<glyph unicode="&#x2012;" horiz-adv-x="872" d="M100 446v316h672v-316h-672z" />
<glyph unicode="&#x2013;" horiz-adv-x="1185" d="M127 0v1102h328v-90q51 51 120.5 76.5t135.5 25.5q78 0 140 -24.5t107 -69.5q72 -72 91.5 -149.5t19.5 -165.5v-705h-336v659q0 47 -14 77t-35.5 46.5t-45.5 22.5t-40 6t-39.5 -6t-45 -22.5t-36 -46t-14.5 -77.5v-659h-336zM203 1436q66 66 122 97.5t128 31.5 q47 0 82.5 -8.5t82.5 -36.5q29 -16 55.5 -25.5t57.5 -9.5q29 0 55.5 9t63.5 46l143 -141q-66 -66 -123 -97.5t-129 -31.5q-47 0 -82.5 8t-83.5 37q-29 16 -56 25.5t-58 9.5q-29 0 -55.5 -9.5t-63.5 -46.5z" />
<glyph unicode="&#x2014;" horiz-adv-x="1126" d="M88 551q0 80 6 142.5t19.5 111.5t37 90t58.5 78q49 53 135 97t219 44t219 -44t136 -97q35 -37 58 -78t36.5 -90t19.5 -111.5t6 -142.5q0 -82 -6 -143.5t-19.5 -110.5t-37 -90t-57.5 -78q-25 -27 -59 -51.5t-77 -45t-97 -32.5t-122 -12t-122 12t-97 32.5t-77 45t-58 51.5 q-35 37 -58.5 78t-37 90t-19.5 110.5t-6 143.5zM424 551q0 -82 8 -139.5t41 -89.5q31 -31 90 -31t90 31q33 33 41 90t8 139t-8 139.5t-41 89.5q-31 31 -90 31t-90 -31q-33 -33 -41 -90t-8 -139zM444 1249l101 369h344l-242 -369h-203z" />
<glyph unicode="&#x2018;" horiz-adv-x="1144" d="M78 551q0 135 37 239.5t102.5 177t155.5 109.5t198 37q121 0 213.5 -41t154.5 -111.5t95 -166t33 -203.5v-150h-659q0 -68 50 -120t144 -52q88 0 135 23.5t92 68.5l201 -200q-43 -43 -86 -75t-93 -54.5t-110.5 -33.5t-138.5 -11q-92 0 -185 21.5t-168 82t-123 171 t-48 288.5zM177 1393q0 68 48 115.5t115 47.5q68 0 116 -47.5t48 -115.5t-48 -116t-116 -48t-115.5 48t-47.5 116zM408 666h327q0 20 -4 41.5t-14 44.5q-16 35 -51 60.5t-95 25.5q-59 0 -94 -26t-51 -60q-10 -23 -14 -44.5t-4 -41.5zM656 1393q0 68 48 115.5t116 47.5 t115.5 -47.5t47.5 -115.5t-48 -116t-115 -48q-68 0 -116 48t-48 116z" />
<glyph unicode="&#x2019;" horiz-adv-x="589" d="M127 0v1102h336v-1102h-336zM141 1249l101 369h344l-242 -369h-203z" />
<glyph unicode="&#x201a;" horiz-adv-x="1120" d="M100 729q0 82 1 161t14.5 152.5t44 140t88.5 124.5q80 80 178 121.5t227 41.5q72 0 130.5 -11t106.5 -32.5t89 -51t78 -66.5l-238 -238q-35 35 -69.5 57.5t-96.5 22.5q-49 0 -83.5 -17.5t-55.5 -43.5q-12 -16 -22.5 -37t-17.5 -60t-11 -101.5t-4 -162.5t4 -162.5 t11 -101.5t17.5 -59.5t22.5 -36.5q20 -27 55 -44.5t84 -17.5q61 0 96 22.5t70 57.5l238 -237q-37 -37 -78 -67t-89 -51.5t-106.5 -32.5t-130.5 -11q-129 0 -227 42t-178 122q-57 57 -88 123.5t-44.5 140t-14.5 152.5t-1 161zM415 -410l137 295h236l-74 -295h-299z" />
<glyph unicode="&#x201c;" horiz-adv-x="589" d="M10 1618h344l101 -369h-203zM127 0v1102h336v-1102h-336z" />
<glyph unicode="&#x201d;" horiz-adv-x="589" d="M-111 1249l279 367h258l279 -367h-246l-162 170l-162 -170h-246zM127 0v1102h336v-1102h-336z" />
<glyph unicode="&#x201e;" horiz-adv-x="1433" d="M147 0v1458h314l467 -733v733h358v-1458h-313l-467 733v-733h-359zM322 1788q66 66 122 97.5t128 31.5q47 0 82.5 -8.5t82.5 -36.5q29 -16 55.5 -25.5t57.5 -9.5q29 0 55.5 9t63.5 46l143 -141q-66 -66 -123 -97.5t-129 -31.5q-47 0 -82.5 8t-83.5 37q-29 16 -56 25.5 t-58 9.5q-29 0 -55.5 -9.5t-63.5 -46.5z" />
<glyph unicode="&#x2022;" horiz-adv-x="589" d="M-102 1393q0 68 48 115.5t115 47.5q68 0 116 -47.5t48 -115.5t-48 -116t-116 -48t-115.5 48t-47.5 116zM127 0v1102h336v-1102h-336zM377 1393q0 68 48 115.5t116 47.5t115.5 -47.5t47.5 -115.5t-48 -116t-115 -48q-68 0 -116 48t-48 116z" />
<glyph unicode="&#x2026;" horiz-adv-x="1310" d="M100 729q0 82 1 161t14.5 152.5t44 140t88.5 124.5q80 80 176 121.5t231 41.5t231.5 -42t176.5 -121q57 -57 88 -124t44 -140.5t14 -152.5t1 -161t-1 -161t-14 -152.5t-44 -140t-88 -123.5q-80 -80 -176 -122t-232 -42q-135 0 -231 42t-176 122q-57 57 -88 123.5 t-44.5 140t-14.5 152.5t-1 161zM252 1745q0 68 48 115.5t115 47.5q68 0 116 -47.5t48 -115.5t-48 -116t-116 -48t-115.5 48t-47.5 116zM459 729q0 -100 4 -161.5t10 -99.5t16.5 -58.5t22.5 -36.5q20 -27 57 -46.5t86 -19.5t86 19.5t58 46.5q12 16 22 36.5t16.5 58.5 t10.5 99.5t4 161.5t-4 162.5t-10.5 100.5t-16.5 58.5t-22 36.5q-20 27 -57 45.5t-87 18.5q-49 0 -86 -18.5t-57 -45.5q-12 -16 -22.5 -36.5t-16.5 -58.5t-10 -100.5t-4 -162.5zM731 1745q0 68 48 115.5t116 47.5t115.5 -47.5t47.5 -115.5t-48 -116t-115 -48q-68 0 -116 48 t-48 116z" />
<glyph unicode="&#x202f;" horiz-adv-x="422" />
<glyph unicode="&#x2039;" horiz-adv-x="1097" d="M55 346q0 61 21.5 119.5t67.5 102.5t117 71t169 27h223v28q0 76 -39 106.5t-127 30.5q-66 0 -100.5 -16t-75.5 -57l-209 209q43 43 84 70.5t89.5 45t103.5 24.5t125 7q238 0 361.5 -98t123.5 -301v-715h-327v90q-51 -51 -104.5 -75.5t-141.5 -24.5q-84 0 -150.5 25.5 t-113.5 72.5t-72 113.5t-25 144.5zM150 1436q66 66 122 97.5t128 31.5q47 0 82.5 -8.5t82.5 -36.5q29 -16 55.5 -25.5t57.5 -9.5q29 0 55.5 9t63.5 46l143 -141q-66 -66 -123 -97.5t-129 -31.5q-47 0 -82.5 8t-83.5 37q-29 16 -56 25.5t-58 9.5q-29 0 -55.5 -9.5 t-63.5 -46.5zM377 354q0 -37 27.5 -64.5t82.5 -27.5q49 0 77 7t57 34q33 31 32 111v28h-170q-49 0 -77.5 -24.5t-28.5 -63.5z" />
<glyph unicode="&#x203a;" horiz-adv-x="1126" d="M88 551q0 80 6 142.5t19.5 111.5t37 90t58.5 78q49 53 135 97t219 44t219 -44t136 -97q35 -37 58 -78t36.5 -90t19.5 -111.5t6 -142.5q0 -82 -6 -143.5t-19.5 -110.5t-37 -90t-57.5 -78q-25 -27 -59 -51.5t-77 -45t-97 -32.5t-122 -12t-122 12t-97 32.5t-77 45t-58 51.5 q-35 37 -58.5 78t-37 90t-19.5 110.5t-6 143.5zM168 1436q66 66 122 97.5t128 31.5q47 0 82.5 -8.5t82.5 -36.5q29 -16 55.5 -25.5t57.5 -9.5q29 0 55.5 9t63.5 46l143 -141q-66 -66 -123 -97.5t-129 -31.5q-47 0 -82.5 8t-83.5 37q-29 16 -56 25.5t-58 9.5 q-29 0 -55.5 -9.5t-63.5 -46.5zM424 551q0 -82 8 -139.5t41 -89.5q31 -31 90 -31t90 31q33 33 41 90t8 139t-8 139.5t-41 89.5q-31 31 -90 31t-90 -31q-33 -33 -41 -90t-8 -139z" />
<glyph unicode="&#x205f;" horiz-adv-x="528" />
<glyph unicode="&#x20ac;" horiz-adv-x="1337" d="M0 0l530 1458h277l530 -1458h-374l-68 217h-449l-71 -217h-375zM265 1745q0 68 48 115.5t115 47.5q68 0 116 -47.5t48 -115.5t-48 -116t-116 -48t-115.5 48t-47.5 116zM547 516h254l-123 389zM744 1745q0 68 48 115.5t116 47.5t115.5 -47.5t47.5 -115.5t-48 -116 t-115 -48q-68 0 -116 48t-48 116z" />
<glyph unicode="&#x2122;" horiz-adv-x="1126" d="M88 551q0 80 6 142.5t19.5 111.5t37 90t58.5 78q49 53 135 97t219 44t219 -44t136 -97q35 -37 58 -78t36.5 -90t19.5 -111.5t6 -142.5q0 -82 -6 -143.5t-19.5 -110.5t-37 -90t-57.5 -78q-25 -27 -59 -51.5t-77 -45t-97 -32.5t-122 -12t-122 12t-97 32.5t-77 45t-58 51.5 q-35 37 -58.5 78t-37 90t-19.5 110.5t-6 143.5zM155 1249l279 367h258l279 -367h-246l-162 170l-162 -170h-246zM424 551q0 -82 8 -139.5t41 -89.5q31 -31 90 -31t90 31q33 33 41 90t8 139t-8 139.5t-41 89.5q-31 31 -90 31t-90 -31q-33 -33 -41 -90t-8 -139z" />
<glyph unicode="&#x25fc;" horiz-adv-x="1105" d="M0 0v1106h1106v-1106h-1106z" />
</font>
</defs>
</svg>
